<svg xmlns="http://www.w3.org/2000/svg" xmlns:xlink="http://www.w3.org/1999/xlink" width="500" zoomAndPan="magnify" viewBox="0 0 375 374.999991" height="500" preserveAspectRatio="xMidYMid meet" version="1.0"><defs><clipPath id="52fed27ee8"><path d="M 187.5 0 C 83.945312 0 0 83.945312 0 187.5 C 0 291.054688 83.945312 375 187.5 375 C 291.054688 375 375 291.054688 375 187.5 C 375 83.945312 291.054688 0 187.5 0 Z M 187.5 0 " clip-rule="nonzero"/></clipPath><clipPath id="eed7c5ad93"><path d="M 131.25 37.5 L 243.75 37.5 L 243.75 150 L 131.25 150 Z M 131.25 37.5 " clip-rule="nonzero"/></clipPath><clipPath id="ccae955961"><path d="M 187.5 37.5 C 156.433594 37.5 131.25 62.683594 131.25 93.75 C 131.25 124.816406 156.433594 150 187.5 150 C 218.566406 150 243.75 124.816406 243.75 93.75 C 243.75 62.683594 218.566406 37.5 187.5 37.5 Z M 187.5 37.5 " clip-rule="nonzero"/></clipPath><clipPath id="1c86d27ee5"><path d="M 131.25 187.058594 L 243.75 187.058594 L 243.75 302.636719 L 131.25 302.636719 Z M 131.25 187.058594 " clip-rule="nonzero"/></clipPath><clipPath id="c0d234c316"><path d="M 187.5 302.636719 L 131.25 187.492188 L 243.75 187.492188 Z M 187.5 302.636719 " clip-rule="nonzero"/></clipPath></defs><g clip-path="url(#52fed27ee8)"><rect x="-37.5" width="450" fill="#4d4d4d" y="-37.499999" height="449.999989" fill-opacity="1"/></g><g clip-path="url(#eed7c5ad93)"><g clip-path="url(#ccae955961)"><path fill="#e2e2e2" d="M 131.25 37.5 L 243.75 37.5 L 243.75 150 L 131.25 150 Z M 131.25 37.5 " fill-opacity="1" fill-rule="nonzero"/></g></g><g clip-path="url(#1c86d27ee5)"><g clip-path="url(#c0d234c316)"><path fill="#e2e2e2" d="M 243.75 302.636719 L 131.25 302.636719 L 131.25 187.5 L 243.75 187.5 Z M 243.75 302.636719 " fill-opacity="1" fill-rule="nonzero"/></g></g></svg>