<svg xmlns="http://www.w3.org/2000/svg" xmlns:xlink="http://www.w3.org/1999/xlink" width="500" zoomAndPan="magnify" viewBox="0 0 375 374.999991" height="500" preserveAspectRatio="xMidYMid meet" version="1.0"><defs><g/><clipPath id="311301982b"><path d="M 28.125 0 L 375 0 L 346.875 375 L 0 375 Z M 28.125 0 " clip-rule="nonzero"/></clipPath><clipPath id="5b30da88d0"><path d="M 19.246094 136.699219 L 355.804688 136.699219 L 355.804688 238.300781 L 19.246094 238.300781 Z M 19.246094 136.699219 " clip-rule="nonzero"/></clipPath><clipPath id="c003ab6d24"><path d="M 355.734375 136.699219 L 19.246094 136.699219 L 45.21875 187.5 L 19.246094 238.300781 L 355.734375 238.300781 L 329.761719 187.5 Z M 355.734375 136.699219 " clip-rule="nonzero"/></clipPath><clipPath id="ef8316dea8"><path d="M 134 42 L 243 42 L 243 122 L 134 122 Z M 134 42 " clip-rule="nonzero"/></clipPath><clipPath id="69273cc0ae"><path d="M 227.3125 27.320312 L 253.949219 96.042969 L 148.984375 136.726562 L 122.347656 68.003906 Z M 227.3125 27.320312 " clip-rule="nonzero"/></clipPath><clipPath id="5fadeb9441"><path d="M 240.628906 61.683594 C 233.273438 42.703125 203.832031 36.421875 174.863281 47.648438 C 145.898438 58.875 128.378906 83.363281 135.734375 102.339844 C 143.089844 121.316406 172.535156 127.597656 201.5 116.371094 C 230.46875 105.144531 247.984375 80.660156 240.628906 61.683594 Z M 240.628906 61.683594 " clip-rule="nonzero"/></clipPath><clipPath id="74cc1fe790"><path d="M 134 42 L 243 42 L 243 122 L 134 122 Z M 134 42 " clip-rule="nonzero"/></clipPath><clipPath id="237b70d27d"><path d="M 227.3125 27.320312 L 253.875 95.851562 L 148.980469 136.511719 L 122.417969 67.976562 Z M 227.3125 27.320312 " clip-rule="nonzero"/></clipPath><clipPath id="7cafff05cc"><path d="M 227.308594 27.320312 L 253.988281 96.15625 L 149.097656 136.808594 L 122.417969 67.976562 Z M 227.308594 27.320312 " clip-rule="nonzero"/></clipPath><clipPath id="7980b683dd"><path d="M 240.625 61.679688 C 233.269531 42.703125 203.828125 36.421875 174.863281 47.648438 C 145.898438 58.875 128.382812 83.359375 135.738281 102.335938 C 143.09375 121.3125 172.535156 127.59375 201.5 116.367188 C 230.464844 105.140625 247.980469 80.65625 240.625 61.679688 Z M 240.625 61.679688 " clip-rule="nonzero"/></clipPath><clipPath id="d49e4a63b8"><path d="M 130 40 L 238 40 L 238 108 L 130 108 Z M 130 40 " clip-rule="nonzero"/></clipPath><clipPath id="e89f632a6f"><path d="M 225.925781 27.320312 L 246.40625 80.164062 L 141.335938 120.890625 L 120.855469 68.046875 Z M 225.925781 27.320312 " clip-rule="nonzero"/></clipPath><clipPath id="ad9f8f42ba"><path d="M 236.164062 53.742188 C 230.507812 39.148438 202.441406 36.421875 173.476562 47.648438 C 144.511719 58.875 125.613281 79.808594 131.269531 94.398438 C 136.925781 108.992188 164.992188 111.722656 193.960938 100.492188 C 222.925781 89.265625 241.820312 68.335938 236.164062 53.742188 Z M 236.164062 53.742188 " clip-rule="nonzero"/></clipPath><clipPath id="00447dc29e"><path d="M 130 40 L 238 40 L 238 108 L 130 108 Z M 130 40 " clip-rule="nonzero"/></clipPath><clipPath id="ab8baf8422"><path d="M 225.925781 27.320312 L 246.523438 80.46875 L 141.628906 121.125 L 121.027344 67.976562 Z M 225.925781 27.320312 " clip-rule="nonzero"/></clipPath><clipPath id="7247dfee0b"><path d="M 225.921875 27.320312 L 246.882812 81.40625 L 141.996094 122.058594 L 121.03125 67.976562 Z M 225.921875 27.320312 " clip-rule="nonzero"/></clipPath><clipPath id="eea6da9f51"><path d="M 236.164062 53.742188 C 230.507812 39.148438 202.441406 36.421875 173.476562 47.648438 C 144.511719 58.875 125.617188 79.804688 131.273438 94.398438 C 136.929688 108.988281 164.992188 111.71875 193.957031 100.488281 C 222.921875 89.261719 241.816406 68.332031 236.164062 53.742188 Z M 236.164062 53.742188 " clip-rule="nonzero"/></clipPath><clipPath id="69a1472efa"><path d="M 183 255 L 285 255 L 285 346 L 183 346 Z M 183 255 " clip-rule="nonzero"/></clipPath><clipPath id="4d971e4b2e"><path d="M 301.148438 304.851562 L 256.652344 363.609375 L 166.910156 295.648438 L 211.40625 236.890625 Z M 301.148438 304.851562 " clip-rule="nonzero"/></clipPath><clipPath id="17b99c4083"><path d="M 278.902344 334.230469 C 291.1875 318.003906 281.070312 289.648438 256.304688 270.890625 C 231.539062 252.136719 201.5 250.089844 189.214844 266.3125 C 176.929688 282.539062 187.042969 310.894531 211.8125 329.652344 C 236.578125 348.40625 266.613281 350.453125 278.902344 334.230469 Z M 278.902344 334.230469 " clip-rule="nonzero"/></clipPath><clipPath id="6d618cf992"><path d="M 183 255 L 285 255 L 285 346 L 183 346 Z M 183 255 " clip-rule="nonzero"/></clipPath><clipPath id="40c1753624"><path d="M 301.148438 304.851562 L 256.777344 363.445312 L 167.089844 295.53125 L 211.460938 236.933594 Z M 301.148438 304.851562 " clip-rule="nonzero"/></clipPath><clipPath id="b4e9713e1e"><path d="M 301.144531 304.847656 L 256.578125 363.699219 L 166.898438 295.789062 L 211.464844 236.9375 Z M 301.144531 304.847656 " clip-rule="nonzero"/></clipPath><clipPath id="71597163df"><path d="M 278.898438 334.226562 C 291.1875 318 281.070312 289.644531 256.304688 270.890625 C 231.542969 252.140625 201.503906 250.089844 189.21875 266.3125 C 176.933594 282.539062 187.050781 310.894531 211.8125 329.648438 C 236.578125 348.398438 266.613281 350.449219 278.898438 334.226562 Z M 278.898438 334.226562 " clip-rule="nonzero"/></clipPath><clipPath id="6ece9778cf"><path d="M 190 251 L 287 251 L 287 334 L 190 334 Z M 190 251 " clip-rule="nonzero"/></clipPath><clipPath id="1c27089493"><path d="M 300.421875 303.667969 L 266.207031 348.851562 L 176.371094 280.824219 L 210.585938 235.640625 Z M 300.421875 303.667969 " clip-rule="nonzero"/></clipPath><clipPath id="9e19c2bbcc"><path d="M 283.3125 326.261719 C 292.761719 313.785156 280.34375 288.464844 255.578125 269.710938 C 230.8125 250.957031 203.074219 245.867188 193.628906 258.34375 C 184.179688 270.820312 196.597656 296.140625 221.363281 314.894531 C 246.128906 333.648438 273.867188 338.738281 283.3125 326.261719 Z M 283.3125 326.261719 " clip-rule="nonzero"/></clipPath><clipPath id="4de8e2a621"><path d="M 190 251 L 287 251 L 287 334 L 190 334 Z M 190 251 " clip-rule="nonzero"/></clipPath><clipPath id="c0b33dfc48"><path d="M 300.421875 303.667969 L 266.011719 349.109375 L 176.324219 281.195312 L 210.734375 235.753906 Z M 300.421875 303.667969 " clip-rule="nonzero"/></clipPath><clipPath id="61615ab51c"><path d="M 300.417969 303.667969 L 265.402344 349.910156 L 175.71875 281.996094 L 210.738281 235.753906 Z M 300.417969 303.667969 " clip-rule="nonzero"/></clipPath><clipPath id="1460906ca9"><path d="M 283.3125 326.257812 C 292.757812 313.78125 280.34375 288.464844 255.578125 269.710938 C 230.8125 250.957031 203.078125 245.867188 193.628906 258.34375 C 184.183594 270.820312 196.601562 296.136719 221.363281 314.890625 C 246.128906 333.644531 273.863281 338.734375 283.3125 326.257812 Z M 283.3125 326.257812 " clip-rule="nonzero"/></clipPath></defs><g clip-path="url(#311301982b)"><rect x="-37.5" width="450" fill="#919191" y="-37.499999" height="449.999989" fill-opacity="1"/></g><g clip-path="url(#5b30da88d0)"><g clip-path="url(#c003ab6d24)"><path fill="#707070" d="M 19.246094 136.699219 L 355.804688 136.699219 L 355.804688 238.300781 L 19.246094 238.300781 Z M 19.246094 136.699219 " fill-opacity="1" fill-rule="nonzero"/></g></g><g fill="#ffffff" fill-opacity="1"><g transform="translate(38.436476, 236.999984)"><g><path d="M 96.046875 -64.40625 L 74.859375 -64.40625 C 74.054688 -69.851562 71.734375 -74.132812 67.890625 -77.25 C 64.046875 -80.363281 59.253906 -81.921875 53.515625 -81.921875 C 45.835938 -81.921875 39.679688 -79.101562 35.046875 -73.46875 C 30.421875 -67.84375 28.109375 -59.867188 28.109375 -49.546875 C 28.109375 -38.960938 30.4375 -30.921875 35.09375 -25.421875 C 39.757812 -19.921875 45.851562 -17.171875 53.375 -17.171875 C 58.957031 -17.171875 63.679688 -18.628906 67.546875 -21.546875 C 71.421875 -24.472656 73.859375 -28.582031 74.859375 -33.875 L 96.046875 -33.78125 C 95.304688 -27.707031 93.144531 -21.992188 89.5625 -16.640625 C 85.988281 -11.285156 81.128906 -6.945312 74.984375 -3.625 C 68.835938 -0.300781 61.519531 1.359375 53.03125 1.359375 C 44.195312 1.359375 36.300781 -0.640625 29.34375 -4.640625 C 22.394531 -8.640625 16.910156 -14.429688 12.890625 -22.015625 C 8.878906 -29.597656 6.875 -38.773438 6.875 -49.546875 C 6.875 -60.359375 8.90625 -69.550781 12.96875 -77.125 C 17.03125 -84.707031 22.546875 -90.488281 29.515625 -94.46875 C 36.484375 -98.457031 44.320312 -100.453125 53.03125 -100.453125 C 60.675781 -100.453125 67.570312 -99.039062 73.71875 -96.21875 C 79.863281 -93.394531 84.894531 -89.296875 88.8125 -83.921875 C 92.738281 -78.554688 95.148438 -72.050781 96.046875 -64.40625 Z M 96.046875 -64.40625 "/></g></g></g><g fill="#ffffff" fill-opacity="1"><g transform="translate(140.917213, 236.999984)"><g><path d="M 8.609375 0 L 8.609375 -99.109375 L 29.5625 -99.109375 L 29.5625 -58.21875 L 72.09375 -58.21875 L 72.09375 -99.109375 L 93 -99.109375 L 93 0 L 72.09375 0 L 72.09375 -40.9375 L 29.5625 -40.9375 L 29.5625 0 Z M 8.609375 0 "/></g></g></g><g fill="#ffffff" fill-opacity="1"><g transform="translate(242.575394, 236.999984)"><g><path d="M 8.609375 0 L 8.609375 -99.109375 L 29.5625 -99.109375 L 29.5625 -55.40625 L 30.875 -55.40625 L 66.53125 -99.109375 L 91.65625 -99.109375 L 54.875 -54.734375 L 92.078125 0 L 67.015625 0 L 39.875 -40.75 L 29.5625 -28.15625 L 29.5625 0 Z M 8.609375 0 "/></g></g></g><g clip-path="url(#ef8316dea8)"><g clip-path="url(#69273cc0ae)"><g clip-path="url(#5fadeb9441)"><path fill="#492610" d="M 227.3125 27.320312 L 253.949219 96.042969 L 148.984375 136.726562 L 122.347656 68.003906 Z M 227.3125 27.320312 " fill-opacity="1" fill-rule="nonzero"/></g></g></g><g clip-path="url(#74cc1fe790)"><g clip-path="url(#237b70d27d)"><g clip-path="url(#7cafff05cc)"><g clip-path="url(#7980b683dd)"><path stroke-linecap="butt" transform="matrix(0.271052, 0.699307, -0.699307, 0.271052, 227.308701, 27.321943)" fill="none" stroke-linejoin="miter" d="M 49.130726 0.000978382 C 21.994434 0.00115188 -0.00143751 33.576346 -0.00172549 74.995566 C -0.00201348 116.414786 21.997023 149.988733 49.133316 149.988559 C 76.269608 149.988386 98.265479 116.413192 98.265767 74.993972 C 98.266055 33.574752 76.267019 0.000804882 49.130726 0.000978382 Z M 49.130726 0.000978382 " stroke="#492610" stroke-width="6" stroke-opacity="1" stroke-miterlimit="4"/></g></g></g></g><g clip-path="url(#d49e4a63b8)"><g clip-path="url(#e89f632a6f)"><g clip-path="url(#ad9f8f42ba)"><path fill="#723b19" d="M 225.925781 27.320312 L 246.40625 80.164062 L 141.542969 120.808594 L 121.0625 67.964844 Z M 225.925781 27.320312 " fill-opacity="1" fill-rule="nonzero"/></g></g></g><g clip-path="url(#00447dc29e)"><g clip-path="url(#ab8baf8422)"><g clip-path="url(#7247dfee0b)"><g clip-path="url(#eea6da9f51)"><path stroke-linecap="butt" transform="matrix(0.271052, 0.699307, -0.699307, 0.271052, 225.921436, 27.321101)" fill="none" stroke-linejoin="miter" d="M 37.782657 -0.00222957 C 16.913938 -0.00260071 -0.000128642 33.576072 -0.00041811 74.995292 C -0.000707578 116.414511 16.914639 149.989834 37.783359 149.990205 C 58.647222 149.988694 75.564263 116.41676 75.559696 74.995658 C 75.559985 33.576439 58.644638 0.00111557 37.782657 -0.00222957 Z M 37.782657 -0.00222957 " stroke="#492610" stroke-width="6" stroke-opacity="1" stroke-miterlimit="4"/></g></g></g></g><g clip-path="url(#69a1472efa)"><g clip-path="url(#4d971e4b2e)"><g clip-path="url(#17b99c4083)"><path fill="#801515" d="M 301.148438 304.851562 L 256.652344 363.609375 L 166.910156 295.648438 L 211.40625 236.890625 Z M 301.148438 304.851562 " fill-opacity="1" fill-rule="nonzero"/></g></g></g><g clip-path="url(#6d618cf992)"><g clip-path="url(#40c1753624)"><g clip-path="url(#b4e9713e1e)"><g clip-path="url(#71597163df)"><path stroke-linecap="butt" transform="matrix(-0.452772, 0.597911, -0.597911, -0.452772, 301.146078, 304.848057)" fill="none" stroke-linejoin="miter" d="M 49.135717 0.000621033 C 21.995835 -0.000863813 -0.00109136 33.577337 -0.00107261 74.997574 C -0.00004594 116.410515 21.999347 149.991359 49.131933 149.991836 C 76.268671 149.989168 98.265597 116.410968 98.268722 74.994883 C 98.264551 33.57779 76.268303 0.00109797 49.135717 0.000621033 Z M 49.135717 0.000621033 " stroke="#801515" stroke-width="6" stroke-opacity="1" stroke-miterlimit="4"/></g></g></g></g><g clip-path="url(#6ece9778cf)"><g clip-path="url(#1c27089493)"><g clip-path="url(#9e19c2bbcc)"><path fill="#ff3131" d="M 300.421875 303.667969 L 266.207031 348.851562 L 176.546875 280.957031 L 210.761719 235.773438 Z M 300.421875 303.667969 " fill-opacity="1" fill-rule="nonzero"/></g></g></g><g clip-path="url(#4de8e2a621)"><g clip-path="url(#c0b33dfc48)"><g clip-path="url(#61615ab51c)"><g clip-path="url(#1460906ca9)"><path stroke-linecap="butt" transform="matrix(-0.452772, 0.597911, -0.597911, -0.452772, 300.418257, 303.666981)" fill="none" stroke-linejoin="miter" d="M 37.781893 -0.00137259 C 16.917098 0.00143597 -0.000628982 33.574881 -0.000610226 74.995118 C -0.000591469 116.415356 16.913314 149.992651 37.781253 149.993994 C 58.646047 149.991186 75.56063 116.413588 75.563756 74.997503 C 75.563737 33.577266 58.649832 -0.0000289825 37.781893 -0.00137259 Z M 37.781893 -0.00137259 " stroke="#801515" stroke-width="6" stroke-opacity="1" stroke-miterlimit="4"/></g></g></g></g></svg>