<svg xmlns="http://www.w3.org/2000/svg" xmlns:xlink="http://www.w3.org/1999/xlink" width="500" zoomAndPan="magnify" viewBox="0 0 375 374.999991" height="500" preserveAspectRatio="xMidYMid meet" version="1.0"><defs><filter x="0%" y="0%" width="100%" height="100%" id="b2d59a0797"><feColorMatrix values="0 0 0 0 1 0 0 0 0 1 0 0 0 0 1 0 0 0 1 0" color-interpolation-filters="sRGB"/></filter><g/><clipPath id="7a145b84b1"><path d="M 28.125 0 L 375 0 L 346.875 375 L 0 375 Z M 28.125 0 " clip-rule="nonzero"/></clipPath><clipPath id="bcdde60bdc"><path d="M 19.246094 136.699219 L 355.804688 136.699219 L 355.804688 238.300781 L 19.246094 238.300781 Z M 19.246094 136.699219 " clip-rule="nonzero"/></clipPath><clipPath id="d7b072bcfa"><path d="M 355.734375 136.699219 L 19.246094 136.699219 L 45.21875 187.5 L 19.246094 238.300781 L 355.734375 238.300781 L 329.761719 187.5 Z M 355.734375 136.699219 " clip-rule="nonzero"/></clipPath><mask id="1a4afa3a87"><g filter="url(#b2d59a0797)"><rect x="-37.5" width="450" fill="#000000" y="-37.499999" height="449.999989" fill-opacity="0.07"/></g></mask><clipPath id="42b15e04c6"><path d="M 9 7 L 26 7 L 26 28 L 9 28 Z M 9 7 " clip-rule="nonzero"/></clipPath><clipPath id="bb35fce91b"><path d="M 15.292969 2.855469 L 30.488281 21.175781 L 18.765625 30.902344 L 3.570312 12.582031 Z M 15.292969 2.855469 " clip-rule="nonzero"/></clipPath><clipPath id="58ac3a5fc6"><path d="M 9.433594 7.71875 L 22.886719 12.011719 L 18.308594 15.808594 L 25.902344 24.964844 L 23.335938 27.097656 L 15.742188 17.941406 L 11.164062 21.738281 Z M 9.433594 7.71875 " clip-rule="nonzero"/></clipPath><clipPath id="8b95926c15"><path d="M 9 7 L 26 7 L 26 28 L 9 28 Z M 9 7 " clip-rule="nonzero"/></clipPath><clipPath id="321a53837d"><path d="M 15.292969 2.855469 L 30.617188 21.332031 L 19.070312 30.90625 L 3.75 12.433594 Z M 15.292969 2.855469 " clip-rule="nonzero"/></clipPath><clipPath id="4ae3ab41c6"><path d="M 15.300781 2.863281 L 30.476562 21.164062 L 18.753906 30.886719 L 3.574219 12.585938 Z M 15.300781 2.863281 " clip-rule="nonzero"/></clipPath><clipPath id="94839fcbe9"><path d="M 9.441406 7.722656 L 22.886719 12.011719 L 18.3125 15.808594 L 25.902344 24.957031 L 23.335938 27.085938 L 15.746094 17.9375 L 11.171875 21.730469 Z M 9.441406 7.722656 " clip-rule="nonzero"/></clipPath><clipPath id="4cbfb4d99a"><rect x="0" width="34" y="0" height="34"/></clipPath><mask id="fc437f9a6e"><g filter="url(#b2d59a0797)"><rect x="-37.5" width="450" fill="#000000" y="-37.499999" height="449.999989" fill-opacity="0.2"/></g></mask><clipPath id="77eac24b58"><path d="M 8 9 L 29 9 L 29 26 L 8 26 Z M 8 9 " clip-rule="nonzero"/></clipPath><clipPath id="d5050536ee"><path d="M 12.554688 3.464844 L 31.671875 17.648438 L 22.59375 29.882812 L 3.480469 15.699219 Z M 12.554688 3.464844 " clip-rule="nonzero"/></clipPath><clipPath id="399352ec61"><path d="M 8.019531 9.582031 L 22.109375 10.554688 L 18.566406 15.332031 L 28.117188 22.417969 L 26.128906 25.097656 L 16.578125 18.011719 L 13.03125 22.789062 Z M 8.019531 9.582031 " clip-rule="nonzero"/></clipPath><clipPath id="9a09bf6b63"><path d="M 8 9 L 29 9 L 29 26 L 8 26 Z M 8 9 " clip-rule="nonzero"/></clipPath><clipPath id="6b12b6630d"><path d="M 12.554688 3.464844 L 31.832031 17.769531 L 22.890625 29.8125 L 3.617188 15.511719 Z M 12.554688 3.464844 " clip-rule="nonzero"/></clipPath><clipPath id="019414def1"><path d="M 12.5625 3.472656 L 31.65625 17.636719 L 22.578125 29.871094 L 3.484375 15.703125 Z M 12.5625 3.472656 " clip-rule="nonzero"/></clipPath><clipPath id="6045b29447"><path d="M 8.027344 9.582031 L 22.109375 10.554688 L 18.566406 15.328125 L 28.113281 22.410156 L 26.125 25.089844 L 16.578125 18.007812 L 13.039062 22.78125 Z M 8.027344 9.582031 " clip-rule="nonzero"/></clipPath><clipPath id="43979bed06"><rect x="0" width="35" y="0" height="33"/></clipPath><mask id="4ee90201b8"><g filter="url(#b2d59a0797)"><rect x="-37.5" width="450" fill="#000000" y="-37.499999" height="449.999989" fill-opacity="0.2"/></g></mask><clipPath id="eda4cda25a"><path d="M 7 8 L 29 8 L 29 23 L 7 23 Z M 7 8 " clip-rule="nonzero"/></clipPath><clipPath id="210c31cf76"><path d="M 10.65625 3.199219 L 31.582031 14.542969 L 24.320312 27.933594 L 3.398438 16.589844 Z M 10.65625 3.199219 " clip-rule="nonzero"/></clipPath><clipPath id="c4c7a170ca"><path d="M 7.027344 9.894531 L 21.113281 8.867188 L 18.28125 14.097656 L 28.738281 19.765625 L 27.148438 22.699219 L 16.6875 17.03125 L 13.855469 22.257812 Z M 7.027344 9.894531 " clip-rule="nonzero"/></clipPath><clipPath id="4f1b5d8f93"><path d="M 7 8 L 29 8 L 29 23 L 7 23 Z M 7 8 " clip-rule="nonzero"/></clipPath><clipPath id="64167d385a"><path d="M 10.65625 3.199219 L 31.753906 14.636719 L 24.609375 27.824219 L 3.507812 16.386719 Z M 10.65625 3.199219 " clip-rule="nonzero"/></clipPath><clipPath id="1d023cdf6f"><path d="M 10.664062 3.203125 L 31.5625 14.53125 L 24.304688 27.921875 L 3.402344 16.59375 Z M 10.664062 3.203125 " clip-rule="nonzero"/></clipPath><clipPath id="2f0b10da4a"><path d="M 7.035156 9.894531 L 21.113281 8.867188 L 18.28125 14.09375 L 28.730469 19.757812 L 27.140625 22.691406 L 16.691406 17.023438 L 13.859375 22.25 Z M 7.035156 9.894531 " clip-rule="nonzero"/></clipPath><clipPath id="15b9ee021a"><rect x="0" width="35" y="0" height="31"/></clipPath><mask id="93e52c0f45"><g filter="url(#b2d59a0797)"><rect x="-37.5" width="450" fill="#000000" y="-37.499999" height="449.999989" fill-opacity="0.2"/></g></mask><clipPath id="4967e99f4e"><path d="M 6 8 L 38 8 L 38 28 L 6 28 Z M 6 8 " clip-rule="nonzero"/></clipPath><clipPath id="078d4a5d64"><path d="M 9.835938 2.726562 L 40.027344 13.390625 L 33.207031 32.710938 L 3.011719 22.050781 Z M 9.835938 2.726562 " clip-rule="nonzero"/></clipPath><clipPath id="ce8fab81a9"><path d="M 6.425781 12.386719 L 24.925781 8.054688 L 22.261719 15.601562 L 37.351562 20.929688 L 35.855469 25.164062 L 20.765625 19.832031 L 18.101562 27.378906 Z M 6.425781 12.386719 " clip-rule="nonzero"/></clipPath><clipPath id="672042dfb5"><path d="M 6 8 L 38 8 L 38 28 L 6 28 Z M 6 8 " clip-rule="nonzero"/></clipPath><clipPath id="ae62f362de"><path d="M 9.835938 2.726562 L 40.246094 13.464844 L 33.503906 32.558594 L 3.09375 21.820312 Z M 9.835938 2.726562 " clip-rule="nonzero"/></clipPath><clipPath id="883c80c63c"><path d="M 9.84375 2.730469 L 40.007812 13.382812 L 33.183594 32.707031 L 3.015625 22.054688 Z M 9.84375 2.730469 " clip-rule="nonzero"/></clipPath><clipPath id="8f18875e28"><path d="M 6.433594 12.386719 L 24.925781 8.054688 L 22.261719 15.597656 L 37.347656 20.925781 L 35.851562 25.15625 L 20.769531 19.828125 L 18.105469 27.371094 Z M 6.433594 12.386719 " clip-rule="nonzero"/></clipPath><clipPath id="4c105c50f4"><rect x="0" width="43" y="0" height="35"/></clipPath><mask id="e9af4f97d8"><g filter="url(#b2d59a0797)"><rect x="-37.5" width="450" fill="#000000" y="-37.499999" height="449.999989" fill-opacity="0.2"/></g></mask><clipPath id="feb4d28761"><path d="M 3 4 L 36 4 L 36 25 L 3 25 Z M 3 4 " clip-rule="nonzero"/></clipPath><clipPath id="4e44f079c5"><path d="M 4.71875 2.71875 L 36.53125 6.359375 L 34.199219 26.71875 L 2.390625 23.078125 Z M 4.71875 2.71875 " clip-rule="nonzero"/></clipPath><clipPath id="7b2a5f2714"><path d="M 3.554688 12.898438 L 20.617188 4.539062 L 19.707031 12.488281 L 35.605469 14.304688 L 35.097656 18.765625 L 19.195312 16.949219 L 18.289062 24.898438 Z M 3.554688 12.898438 " clip-rule="nonzero"/></clipPath><clipPath id="cd59493fbd"><path d="M 3 4 L 36 4 L 36 25 L 3 25 Z M 3 4 " clip-rule="nonzero"/></clipPath><clipPath id="eb57e185e6"><path d="M 4.71875 2.71875 L 36.757812 6.382812 L 34.457031 26.503906 L 2.417969 22.839844 Z M 4.71875 2.71875 " clip-rule="nonzero"/></clipPath><clipPath id="089be7baad"><path d="M 4.722656 2.71875 L 36.507812 6.355469 L 34.179688 26.71875 L 2.394531 23.082031 Z M 4.722656 2.71875 " clip-rule="nonzero"/></clipPath><clipPath id="ba57e8233b"><path d="M 3.558594 12.894531 L 20.617188 4.539062 L 19.707031 12.484375 L 35.601562 14.300781 L 35.089844 18.761719 L 19.195312 16.941406 L 18.289062 24.890625 Z M 3.558594 12.894531 " clip-rule="nonzero"/></clipPath><clipPath id="8b9a7f0ba4"><rect x="0" width="39" y="0" height="29"/></clipPath><mask id="091fcd96ce"><g filter="url(#b2d59a0797)"><rect x="-37.5" width="450" fill="#000000" y="-37.499999" height="449.999989" fill-opacity="0.6"/></g></mask><clipPath id="e8908f57cb"><path d="M 5 6 L 38 6 L 38 27 L 5 27 Z M 5 6 " clip-rule="nonzero"/></clipPath><clipPath id="3beb161a1d"><path d="M 3.375 10.679688 L 34.425781 2.875 L 39.421875 22.75 L 8.367188 30.554688 Z M 3.375 10.679688 " clip-rule="nonzero"/></clipPath><clipPath id="9b69c20502"><path d="M 5.871094 20.617188 L 18.894531 6.78125 L 20.84375 14.539062 L 36.363281 10.640625 L 37.457031 14.996094 L 21.9375 18.894531 L 23.886719 26.652344 Z M 5.871094 20.617188 " clip-rule="nonzero"/></clipPath><clipPath id="053cd5884f"><path d="M 5 6 L 38 6 L 38 27 L 5 27 Z M 5 6 " clip-rule="nonzero"/></clipPath><clipPath id="763d63aa36"><path d="M 3.375 10.679688 L 34.652344 2.820312 L 39.585938 22.460938 L 8.308594 30.320312 Z M 3.375 10.679688 " clip-rule="nonzero"/></clipPath><clipPath id="1ea9cd8bfc"><path d="M 3.378906 10.675781 L 34.40625 2.882812 L 39.402344 22.761719 L 8.371094 30.554688 Z M 3.378906 10.675781 " clip-rule="nonzero"/></clipPath><clipPath id="6a992b5242"><path d="M 5.875 20.609375 L 18.894531 6.78125 L 20.839844 14.535156 L 36.355469 10.640625 L 37.449219 14.992188 L 21.933594 18.890625 L 23.882812 26.648438 Z M 5.875 20.609375 " clip-rule="nonzero"/></clipPath><clipPath id="ba038b9e58"><rect x="0" width="42" y="0" height="33"/></clipPath><mask id="a599e231de"><g filter="url(#b2d59a0797)"><rect x="-37.5" width="450" fill="#000000" y="-37.499999" height="449.999989" fill-opacity="0.8"/></g></mask><clipPath id="8b5a2ddc6a"><path d="M 8 9 L 37 9 L 37 30 L 8 30 Z M 8 9 " clip-rule="nonzero"/></clipPath><clipPath id="d4fa698b47"><path d="M 2.992188 20.863281 L 29.683594 3.171875 L 41.003906 20.253906 L 14.316406 37.945312 Z M 2.992188 20.863281 " clip-rule="nonzero"/></clipPath><clipPath id="6d4264c751"><path d="M 8.65625 29.402344 L 16.332031 12.023438 L 20.753906 18.691406 L 34.09375 9.851562 L 36.574219 13.59375 L 23.234375 22.433594 L 27.652344 29.101562 Z M 8.65625 29.402344 " clip-rule="nonzero"/></clipPath><clipPath id="fe9a6b03b9"><path d="M 8 9 L 37 9 L 37 30 L 8 30 Z M 8 9 " clip-rule="nonzero"/></clipPath><clipPath id="40cd7a1346"><path d="M 2.992188 20.863281 L 29.875 3.046875 L 41.0625 19.925781 L 14.179688 37.742188 Z M 2.992188 20.863281 " clip-rule="nonzero"/></clipPath><clipPath id="62df9592c7"><path d="M 3 20.859375 L 29.664062 3.183594 L 40.988281 20.269531 L 14.320312 37.945312 Z M 3 20.859375 " clip-rule="nonzero"/></clipPath><clipPath id="08e6892c4d"><path d="M 8.65625 29.398438 L 16.332031 12.023438 L 20.75 18.6875 L 34.085938 9.851562 L 36.5625 13.59375 L 23.230469 22.429688 L 27.648438 29.097656 Z M 8.65625 29.398438 " clip-rule="nonzero"/></clipPath><clipPath id="f1c39b17c6"><rect x="0" width="44" y="0" height="41"/></clipPath><mask id="ba2eab5341"><g filter="url(#b2d59a0797)"><rect x="-37.5" width="450" fill="#000000" y="-37.499999" height="449.999989" fill-opacity="0.9"/></g></mask><clipPath id="f5be08bb50"><path d="M 9 10 L 38 10 L 38 30 L 9 30 Z M 9 10 " clip-rule="nonzero"/></clipPath><clipPath id="ee4934e667"><path d="M 3.636719 20.992188 L 30.542969 3.636719 L 41.652344 20.855469 L 14.746094 38.210938 Z M 3.636719 20.992188 " clip-rule="nonzero"/></clipPath><clipPath id="b002eb29cc"><path d="M 9.191406 29.601562 L 17.085938 12.316406 L 21.421875 19.039062 L 34.871094 10.367188 L 37.304688 14.140625 L 23.855469 22.8125 L 28.195312 29.539062 Z M 9.191406 29.601562 " clip-rule="nonzero"/></clipPath><clipPath id="f1456c2178"><path d="M 9 10 L 38 10 L 38 30 L 9 30 Z M 9 10 " clip-rule="nonzero"/></clipPath><clipPath id="a941d80a02"><path d="M 3.636719 20.992188 L 30.738281 3.511719 L 41.714844 20.527344 L 14.613281 38.007812 Z M 3.636719 20.992188 " clip-rule="nonzero"/></clipPath><clipPath id="b0cd84e7d6"><path d="M 3.640625 20.988281 L 30.527344 3.644531 L 41.636719 20.871094 L 14.753906 38.210938 Z M 3.640625 20.988281 " clip-rule="nonzero"/></clipPath><clipPath id="7f731be0a7"><path d="M 9.195312 29.59375 L 17.085938 12.316406 L 21.421875 19.039062 L 34.863281 10.367188 L 37.296875 14.136719 L 23.851562 22.808594 L 28.1875 29.53125 Z M 9.195312 29.59375 " clip-rule="nonzero"/></clipPath><clipPath id="6aaf719d8d"><rect x="0" width="45" y="0" height="41"/></clipPath><clipPath id="952f7f8507"><path d="M 131 94 L 167 94 L 167 128 L 131 128 Z M 131 94 " clip-rule="nonzero"/></clipPath><clipPath id="711c9c31fe"><path d="M 121.25 117.191406 L 154.425781 86.558594 L 174.03125 107.789062 L 140.859375 138.425781 Z M 121.25 117.191406 " clip-rule="nonzero"/></clipPath><clipPath id="60c87981da"><path d="M 131.054688 127.808594 L 137.832031 101.882812 L 145.488281 110.171875 L 162.066406 94.859375 L 166.363281 99.511719 L 149.78125 114.824219 L 157.4375 123.113281 Z M 131.054688 127.808594 " clip-rule="nonzero"/></clipPath><clipPath id="c05829d902"><path d="M 131 94 L 167 94 L 167 128 L 131 128 Z M 131 94 " clip-rule="nonzero"/></clipPath><clipPath id="f31e71bc23"><path d="M 121.25 117.191406 L 154.3125 86.664062 L 174.15625 108.152344 L 141.097656 138.679688 Z M 121.25 117.191406 " clip-rule="nonzero"/></clipPath><clipPath id="6b4e368f51"><path d="M 121.253906 117.195312 L 154.40625 86.578125 L 174.019531 107.816406 L 140.867188 138.433594 Z M 121.253906 117.195312 " clip-rule="nonzero"/></clipPath><clipPath id="11d20476b7"><path d="M 131.054688 127.808594 L 137.828125 101.886719 L 145.484375 110.175781 L 162.0625 94.863281 L 166.355469 99.515625 L 149.777344 114.824219 L 157.433594 123.113281 Z M 131.054688 127.808594 " clip-rule="nonzero"/></clipPath></defs><g clip-path="url(#7a145b84b1)"><rect x="-37.5" width="450" fill="#5271ff" y="-37.499999" height="449.999989" fill-opacity="1"/></g><g clip-path="url(#bcdde60bdc)"><g clip-path="url(#d7b072bcfa)"><path fill="#004aad" d="M 19.246094 136.699219 L 355.804688 136.699219 L 355.804688 238.300781 L 19.246094 238.300781 Z M 19.246094 136.699219 " fill-opacity="1" fill-rule="nonzero"/></g></g><g fill="#ffffff" fill-opacity="1"><g transform="translate(45.702101, 236.999984)"><g><path d="M 96.046875 -64.40625 L 74.859375 -64.40625 C 74.054688 -69.851562 71.734375 -74.132812 67.890625 -77.25 C 64.046875 -80.363281 59.253906 -81.921875 53.515625 -81.921875 C 45.835938 -81.921875 39.679688 -79.101562 35.046875 -73.46875 C 30.421875 -67.84375 28.109375 -59.867188 28.109375 -49.546875 C 28.109375 -38.960938 30.4375 -30.921875 35.09375 -25.421875 C 39.757812 -19.921875 45.851562 -17.171875 53.375 -17.171875 C 58.957031 -17.171875 63.679688 -18.628906 67.546875 -21.546875 C 71.421875 -24.472656 73.859375 -28.582031 74.859375 -33.875 L 96.046875 -33.78125 C 95.304688 -27.707031 93.144531 -21.992188 89.5625 -16.640625 C 85.988281 -11.285156 81.128906 -6.945312 74.984375 -3.625 C 68.835938 -0.300781 61.519531 1.359375 53.03125 1.359375 C 44.195312 1.359375 36.300781 -0.640625 29.34375 -4.640625 C 22.394531 -8.640625 16.910156 -14.429688 12.890625 -22.015625 C 8.878906 -29.597656 6.875 -38.773438 6.875 -49.546875 C 6.875 -60.359375 8.90625 -69.550781 12.96875 -77.125 C 17.03125 -84.707031 22.546875 -90.488281 29.515625 -94.46875 C 36.484375 -98.457031 44.320312 -100.453125 53.03125 -100.453125 C 60.675781 -100.453125 67.570312 -99.039062 73.71875 -96.21875 C 79.863281 -93.394531 84.894531 -89.296875 88.8125 -83.921875 C 92.738281 -78.554688 95.148438 -72.050781 96.046875 -64.40625 Z M 96.046875 -64.40625 "/></g></g></g><g fill="#ffffff" fill-opacity="1"><g transform="translate(148.182838, 236.999984)"><g><path d="M 4.84375 -81.828125 L 4.84375 -99.109375 L 86.234375 -99.109375 L 86.234375 -81.828125 L 55.890625 -81.828125 L 55.890625 0 L 35.171875 0 L 35.171875 -81.828125 Z M 4.84375 -81.828125 "/></g></g></g><g fill="#ffffff" fill-opacity="1"><g transform="translate(239.244568, 236.999984)"><g><path d="M 8.609375 0 L 8.609375 -99.109375 L 48.296875 -99.109375 C 59.234375 -99.109375 67.453125 -96.726562 72.953125 -91.96875 C 78.453125 -87.207031 81.203125 -81.117188 81.203125 -73.703125 C 81.203125 -67.859375 79.503906 -63.132812 76.109375 -59.53125 C 72.722656 -55.9375 68.453125 -53.5625 63.296875 -52.40625 L 63.296875 -51.4375 C 67.066406 -51.28125 70.601562 -50.21875 73.90625 -48.25 C 77.21875 -46.28125 79.90625 -43.535156 81.96875 -40.015625 C 84.03125 -36.503906 85.0625 -32.296875 85.0625 -27.390625 C 85.0625 -22.128906 83.765625 -17.429688 81.171875 -13.296875 C 78.578125 -9.171875 74.742188 -5.921875 69.671875 -3.546875 C 64.609375 -1.179688 58.367188 0 50.953125 0 Z M 29.5625 -17.125 L 46.640625 -17.125 C 52.515625 -17.125 56.78125 -18.253906 59.4375 -20.515625 C 62.101562 -22.773438 63.4375 -25.757812 63.4375 -29.46875 C 63.4375 -33.5625 61.976562 -36.914062 59.0625 -39.53125 C 56.144531 -42.144531 52.164062 -43.453125 47.125 -43.453125 L 29.5625 -43.453125 Z M 29.5625 -57.625 L 45.09375 -57.625 C 49.382812 -57.625 52.945312 -58.742188 55.78125 -60.984375 C 58.625 -63.234375 60.046875 -66.3125 60.046875 -70.21875 C 60.046875 -73.789062 58.78125 -76.675781 56.25 -78.875 C 53.71875 -81.070312 50.128906 -82.171875 45.484375 -82.171875 L 29.5625 -82.171875 Z M 29.5625 -57.625 "/></g></g></g><g mask="url(#1a4afa3a87)"><g transform="matrix(1, 0, 0, 1, 258, 89)"><g clip-path="url(#4cbfb4d99a)"><g clip-path="url(#42b15e04c6)"><g clip-path="url(#bb35fce91b)"><g clip-path="url(#58ac3a5fc6)"><path fill="#ffffff" d="M 15.292969 2.855469 L 30.488281 21.175781 L 18.765625 30.902344 L 3.570312 12.582031 Z M 15.292969 2.855469 " fill-opacity="1" fill-rule="nonzero"/></g></g></g><g clip-path="url(#8b95926c15)"><g clip-path="url(#321a53837d)"><g clip-path="url(#4ae3ab41c6)"><g clip-path="url(#94839fcbe9)"><path stroke-linecap="butt" transform="matrix(0.478779, 0.577296, -0.577296, 0.478779, 15.299313, 2.862374)" fill="none" stroke-linejoin="miter" d="M 0.00209455 10.148883 L 15.848125 0.000596704 L 15.851468 7.926894 L 31.700738 7.924217 L 31.701213 12.370175 L 15.851944 12.372852 L 15.851278 20.295824 Z M 0.00209455 10.148883 " stroke="#000000" stroke-width="1" stroke-opacity="1" stroke-miterlimit="4"/></g></g></g></g></g></g></g><g mask="url(#fc437f9a6e)"><g transform="matrix(1, 0, 0, 1, 244, 76)"><g clip-path="url(#43979bed06)"><g clip-path="url(#77eac24b58)"><g clip-path="url(#d5050536ee)"><g clip-path="url(#399352ec61)"><path fill="#ffffff" d="M 12.554688 3.464844 L 31.671875 17.648438 L 22.59375 29.882812 L 3.480469 15.699219 Z M 12.554688 3.464844 " fill-opacity="1" fill-rule="nonzero"/></g></g></g><g clip-path="url(#9a09bf6b63)"><g clip-path="url(#6b12b6630d)"><g clip-path="url(#019414def1)"><g clip-path="url(#6045b29447)"><path stroke-linecap="butt" transform="matrix(0.602306, 0.446909, -0.446909, 0.602306, 12.562097, 3.470822)" fill="none" stroke-linejoin="miter" d="M -0.000270421 10.146559 L 15.851067 -0.000203253 L 15.849899 7.925938 L 31.699077 7.924091 L 31.699119 12.373108 L 15.849941 12.374955 L 15.852956 20.297992 Z M -0.000270421 10.146559 " stroke="#000000" stroke-width="1" stroke-opacity="1" stroke-miterlimit="4"/></g></g></g></g></g></g></g><g mask="url(#4ee90201b8)"><g transform="matrix(1, 0, 0, 1, 230, 67)"><g clip-path="url(#15b9ee021a)"><g clip-path="url(#eda4cda25a)"><g clip-path="url(#210c31cf76)"><g clip-path="url(#c4c7a170ca)"><path fill="#ffffff" d="M 10.65625 3.199219 L 31.582031 14.542969 L 24.320312 27.933594 L 3.398438 16.589844 Z M 10.65625 3.199219 " fill-opacity="1" fill-rule="nonzero"/></g></g></g><g clip-path="url(#4f1b5d8f93)"><g clip-path="url(#64167d385a)"><g clip-path="url(#1d023cdf6f)"><g clip-path="url(#2f0b10da4a)"><path stroke-linecap="butt" transform="matrix(0.659359, 0.357415, -0.357415, 0.659359, 10.662347, 3.202163)" fill="none" stroke-linejoin="miter" d="M 0.00058334 10.149487 L 15.850104 -0.0000540264 L 15.851391 7.925977 L 31.698873 7.925885 L 31.699284 12.37482 L 15.84932 12.370333 L 15.850606 20.296363 Z M 0.00058334 10.149487 " stroke="#000000" stroke-width="1" stroke-opacity="1" stroke-miterlimit="4"/></g></g></g></g></g></g></g><g mask="url(#93e52c0f45)"><g transform="matrix(1, 0, 0, 1, 205, 58)"><g clip-path="url(#4c105c50f4)"><g clip-path="url(#4967e99f4e)"><g clip-path="url(#078d4a5d64)"><g clip-path="url(#ce8fab81a9)"><path fill="#ffffff" d="M 9.835938 2.726562 L 40.027344 13.390625 L 33.207031 32.710938 L 3.011719 22.050781 Z M 9.835938 2.726562 " fill-opacity="1" fill-rule="nonzero"/></g></g></g><g clip-path="url(#672042dfb5)"><g clip-path="url(#ae62f362de)"><g clip-path="url(#883c80c63c)"><g clip-path="url(#8f18875e28)"><path stroke-linecap="butt" transform="matrix(0.707195, 0.24975, -0.24975, 0.707195, 9.842412, 2.728767)" fill="none" stroke-linejoin="miter" d="M 0.002436 13.655839 L 21.328062 -0.0010683 L 21.327781 10.665067 L 42.66005 10.665629 L 42.657433 16.648592 L 21.330075 16.646295 L 21.329793 27.31243 Z M 0.002436 13.655839 " stroke="#000000" stroke-width="1" stroke-opacity="1" stroke-miterlimit="4"/></g></g></g></g></g></g></g><g mask="url(#e9af4f97d8)"><g transform="matrix(1, 0, 0, 1, 190, 61)"><g clip-path="url(#8b9a7f0ba4)"><g clip-path="url(#feb4d28761)"><g clip-path="url(#4e44f079c5)"><g clip-path="url(#7b2a5f2714)"><path fill="#ffffff" d="M 4.71875 2.71875 L 36.53125 6.359375 L 34.199219 26.71875 L 2.390625 23.078125 Z M 4.71875 2.71875 " fill-opacity="1" fill-rule="nonzero"/></g></g></g><g clip-path="url(#cd59493fbd)"><g clip-path="url(#eb57e185e6)"><g clip-path="url(#089be7baad)"><g clip-path="url(#ba57e8233b)"><path stroke-linecap="butt" transform="matrix(0.745142, 0.0852229, -0.0852229, 0.745142, 4.722814, 2.719703)" fill="none" stroke-linejoin="miter" d="M -0.000677951 13.654958 L 21.330883 0.00198606 L 21.328975 10.665017 L 42.659619 10.663067 L 42.657612 16.649989 L 21.326375 16.646764 L 21.330234 27.314378 Z M -0.000677951 13.654958 " stroke="#000000" stroke-width="1" stroke-opacity="1" stroke-miterlimit="4"/></g></g></g></g></g></g></g><g mask="url(#091fcd96ce)"><g transform="matrix(1, 0, 0, 1, 171, 59)"><g clip-path="url(#ba038b9e58)"><g clip-path="url(#e8908f57cb)"><g clip-path="url(#3beb161a1d)"><g clip-path="url(#9b69c20502)"><path fill="#ffffff" d="M 3.375 10.679688 L 34.425781 2.875 L 39.421875 22.75 L 8.367188 30.554688 Z M 3.375 10.679688 " fill-opacity="1" fill-rule="nonzero"/></g></g></g><g clip-path="url(#053cd5884f)"><g clip-path="url(#763d63aa36)"><g clip-path="url(#1ea9cd8bfc)"><g clip-path="url(#6a992b5242)"><path stroke-linecap="butt" transform="matrix(0.727395, -0.182748, 0.182748, 0.727395, 3.378465, 10.677537)" fill="none" stroke-linejoin="miter" d="M 0.00168161 13.654408 L 21.330392 0.00246588 L 21.326839 10.661405 L 42.65609 10.665998 L 42.656712 16.648549 L 21.326192 16.649007 L 21.326421 27.314267 Z M 0.00168161 13.654408 " stroke="#000000" stroke-width="1" stroke-opacity="1" stroke-miterlimit="4"/></g></g></g></g></g></g></g><g mask="url(#a599e231de)"><g transform="matrix(1, 0, 0, 1, 158, 62)"><g clip-path="url(#f1c39b17c6)"><g clip-path="url(#8b5a2ddc6a)"><g clip-path="url(#d4fa698b47)"><g clip-path="url(#6d4264c751)"><path fill="#ffffff" d="M 2.992188 20.863281 L 29.683594 3.171875 L 41.003906 20.253906 L 14.316406 37.945312 Z M 2.992188 20.863281 " fill-opacity="1" fill-rule="nonzero"/></g></g></g><g clip-path="url(#fe9a6b03b9)"><g clip-path="url(#40cd7a1346)"><g clip-path="url(#62df9592c7)"><g clip-path="url(#08e6892c4d)"><path stroke-linecap="butt" transform="matrix(0.625153, -0.414347, 0.414347, 0.625153, 2.99848, 20.859855)" fill="none" stroke-linejoin="miter" d="M -0.00170201 13.657249 L 21.327745 0.00105442 L 21.328949 10.661735 L 42.658992 10.665081 L 42.654849 16.648364 L 21.329147 16.647896 L 21.327474 27.312917 Z M -0.00170201 13.657249 " stroke="#000000" stroke-width="1" stroke-opacity="1" stroke-miterlimit="4"/></g></g></g></g></g></g></g><g mask="url(#ba2eab5341)"><g transform="matrix(1, 0, 0, 1, 144, 74)"><g clip-path="url(#6aaf719d8d)"><g clip-path="url(#f5be08bb50)"><g clip-path="url(#ee4934e667)"><g clip-path="url(#b002eb29cc)"><path fill="#ffffff" d="M 3.636719 20.992188 L 30.542969 3.636719 L 41.652344 20.855469 L 14.746094 38.210938 Z M 3.636719 20.992188 " fill-opacity="1" fill-rule="nonzero"/></g></g></g><g clip-path="url(#f1456c2178)"><g clip-path="url(#a941d80a02)"><g clip-path="url(#b0cd84e7d6)"><g clip-path="url(#7f731be0a7)"><path stroke-linecap="butt" transform="matrix(0.630251, -0.40655, 0.40655, 0.630251, 3.642285, 20.988497)" fill="none" stroke-linejoin="miter" d="M 0.00237607 13.655215 L 21.330708 -0.000139209 L 21.330057 10.666067 L 42.658092 10.664546 L 42.660354 16.647001 L 21.327942 16.645698 L 21.327291 27.311904 Z M 0.00237607 13.655215 " stroke="#000000" stroke-width="1" stroke-opacity="1" stroke-miterlimit="4"/></g></g></g></g></g></g></g><g clip-path="url(#952f7f8507)"><g clip-path="url(#711c9c31fe)"><g clip-path="url(#60c87981da)"><path fill="#ffffff" d="M 121.25 117.191406 L 154.425781 86.558594 L 174.03125 107.789062 L 140.859375 138.425781 Z M 121.25 117.191406 " fill-opacity="1" fill-rule="nonzero"/></g></g></g><g clip-path="url(#c05829d902)"><g clip-path="url(#f31e71bc23)"><g clip-path="url(#6b4e368f51)"><g clip-path="url(#11d20476b7)"><path stroke-linecap="butt" transform="matrix(0.550982, -0.508841, 0.508841, 0.550982, 121.252979, 117.194443)" fill="none" stroke-linejoin="miter" d="M -0.000619825 19.263493 L 30.083201 -0.000300356 L 30.084343 15.044919 L 60.174783 15.042636 L 60.171309 23.48316 L 30.084403 23.481618 L 30.085545 38.526838 Z M -0.000619825 19.263493 " stroke="#000000" stroke-width="1" stroke-opacity="1" stroke-miterlimit="4"/></g></g></g></g></svg>