<svg xmlns="http://www.w3.org/2000/svg" xmlns:xlink="http://www.w3.org/1999/xlink" width="500" zoomAndPan="magnify" viewBox="0 0 375 374.999991" height="500" preserveAspectRatio="xMidYMid meet" version="1.0"><defs><g/></defs><rect x="-37.5" width="450" fill="#ffffff" y="-37.499999" height="449.999989" fill-opacity="1"/><rect x="-37.5" width="450" fill="#ff3131" y="-37.499999" height="449.999989" fill-opacity="1"/><g fill="#ffffff" fill-opacity="1"><g transform="translate(76.732324, 342.876364)"><g><path d="M 43.75 0 L 8.609375 0 L 8.609375 -99.109375 L 44.03125 -99.109375 C 54 -99.109375 62.585938 -97.128906 69.796875 -93.171875 C 77.015625 -89.222656 82.554688 -83.550781 86.421875 -76.15625 C 90.296875 -68.769531 92.234375 -59.929688 92.234375 -49.640625 C 92.234375 -39.316406 90.285156 -30.445312 86.390625 -23.03125 C 82.503906 -15.613281 76.941406 -9.921875 69.703125 -5.953125 C 62.460938 -1.984375 53.8125 0 43.75 0 Z M 29.5625 -17.953125 L 42.875 -17.953125 C 52.195312 -17.953125 59.269531 -20.46875 64.09375 -25.5 C 68.914062 -30.53125 71.328125 -38.578125 71.328125 -49.640625 C 71.328125 -60.648438 68.914062 -68.65625 64.09375 -73.65625 C 59.269531 -78.65625 52.210938 -81.15625 42.921875 -81.15625 L 29.5625 -81.15625 Z M 29.5625 -17.953125 "/></g></g></g><g fill="#ffffff" fill-opacity="1"><g transform="translate(175.826067, 342.876364)"><g><path d="M 7.546875 0 L 7.546875 -12.4375 L 57 -81.828125 L 7.453125 -81.828125 L 7.453125 -99.109375 L 83.328125 -99.109375 L 83.328125 -86.671875 L 33.828125 -17.28125 L 83.421875 -17.28125 L 83.421875 0 Z M 7.546875 0 "/></g></g></g><g fill="#ffffff" fill-opacity="1"><g transform="translate(266.694256, 342.876364)"><g><path d="M 8.609375 0 L 8.609375 -99.109375 L 29.5625 -99.109375 L 29.5625 -58.21875 L 72.09375 -58.21875 L 72.09375 -99.109375 L 93 -99.109375 L 93 0 L 72.09375 0 L 72.09375 -40.9375 L 29.5625 -40.9375 L 29.5625 0 Z M 8.609375 0 "/></g></g></g></svg>