<svg xmlns="http://www.w3.org/2000/svg" xmlns:xlink="http://www.w3.org/1999/xlink" width="500" zoomAndPan="magnify" viewBox="0 0 375 374.999991" height="500" preserveAspectRatio="xMidYMid meet" version="1.0"><defs><g/></defs><rect x="-37.5" width="450" fill="#ffffff" y="-37.499999" height="449.999989" fill-opacity="1"/><rect x="-37.5" width="450" fill="#00bf63" y="-37.499999" height="449.999989" fill-opacity="1"/><g fill="#ffffff" fill-opacity="1"><g transform="translate(103.204862, 342.876364)"><g><path d="M 8.609375 0 L 8.609375 -99.109375 L 75.390625 -99.109375 L 75.390625 -81.828125 L 29.5625 -81.828125 L 29.5625 -58.21875 L 71.953125 -58.21875 L 71.953125 -40.9375 L 29.5625 -40.9375 L 29.5625 -17.28125 L 75.578125 -17.28125 L 75.578125 0 Z M 8.609375 0 "/></g></g></g><g fill="#ffffff" fill-opacity="1"><g transform="translate(186.670051, 342.876364)"><g><path d="M 8.609375 0 L 8.609375 -99.109375 L 47.71875 -99.109375 C 55.226562 -99.109375 61.628906 -97.675781 66.921875 -94.8125 C 72.210938 -91.957031 76.253906 -88.003906 79.046875 -82.953125 C 81.835938 -77.910156 83.234375 -72.097656 83.234375 -65.515625 C 83.234375 -58.929688 81.8125 -53.128906 78.96875 -48.109375 C 76.132812 -43.097656 72.03125 -39.179688 66.65625 -36.359375 C 61.28125 -33.535156 54.789062 -32.125 47.1875 -32.125 L 29.5625 -32.125 L 29.5625 0 Z M 29.5625 -48.921875 L 43.796875 -48.921875 C 49.796875 -48.921875 54.269531 -50.460938 57.21875 -53.546875 C 60.175781 -56.628906 61.65625 -60.617188 61.65625 -65.515625 C 61.65625 -70.453125 60.175781 -74.425781 57.21875 -77.4375 C 54.269531 -80.457031 49.765625 -81.96875 43.703125 -81.96875 L 29.5625 -81.96875 Z M 29.5625 -48.921875 "/></g></g></g><g fill="#ffffff" fill-opacity="1"><g transform="translate(274.925416, 342.876364)"><g><path d="M 62.375 -70.59375 C 61.988281 -74.5 60.316406 -77.53125 57.359375 -79.6875 C 54.410156 -81.851562 50.4375 -82.9375 45.4375 -82.9375 C 40.3125 -82.9375 36.375 -81.890625 33.625 -79.796875 C 30.882812 -77.703125 29.515625 -75.054688 29.515625 -71.859375 C 29.453125 -68.304688 30.976562 -65.617188 34.09375 -63.796875 C 37.207031 -61.972656 40.910156 -60.5625 45.203125 -59.5625 L 54.09375 -57.4375 C 59.84375 -56.144531 64.945312 -54.269531 69.40625 -51.8125 C 73.875 -49.363281 77.390625 -46.210938 79.953125 -42.359375 C 82.523438 -38.503906 83.8125 -33.820312 83.8125 -28.3125 C 83.78125 -19.238281 80.382812 -12.015625 73.625 -6.640625 C 66.863281 -1.273438 57.4375 1.40625 45.34375 1.40625 C 33.3125 1.40625 23.710938 -1.332031 16.546875 -6.8125 C 9.390625 -12.300781 5.679688 -20.398438 5.421875 -31.109375 L 25.6875 -31.109375 C 26.050781 -26.140625 28.015625 -22.40625 31.578125 -19.90625 C 35.140625 -17.40625 39.644531 -16.15625 45.09375 -16.15625 C 50.414062 -16.15625 54.664062 -17.285156 57.84375 -19.546875 C 61.019531 -21.804688 62.628906 -24.742188 62.671875 -28.359375 C 62.628906 -31.710938 61.15625 -34.289062 58.25 -36.09375 C 55.351562 -37.90625 51.210938 -39.457031 45.828125 -40.75 L 35.03125 -43.453125 C 26.675781 -45.453125 20.078125 -48.628906 15.234375 -52.984375 C 10.398438 -57.335938 8 -63.160156 8.03125 -70.453125 C 8 -76.453125 9.601562 -81.703125 12.84375 -86.203125 C 16.082031 -90.703125 20.539062 -94.203125 26.21875 -96.703125 C 31.90625 -99.203125 38.359375 -100.453125 45.578125 -100.453125 C 52.929688 -100.453125 59.359375 -99.191406 64.859375 -96.671875 C 70.359375 -94.160156 74.640625 -90.660156 77.703125 -86.171875 C 80.773438 -81.691406 82.359375 -76.5 82.453125 -70.59375 Z M 62.375 -70.59375 "/></g></g></g></svg>