<svg xmlns="http://www.w3.org/2000/svg" xmlns:xlink="http://www.w3.org/1999/xlink" width="500" zoomAndPan="magnify" viewBox="0 0 375 374.999991" height="500" preserveAspectRatio="xMidYMid meet" version="1.0"><defs><g/><clipPath id="180674a409"><path d="M 0 110.480469 L 375 110.480469 L 375 264.519531 L 0 264.519531 Z M 0 110.480469 " clip-rule="nonzero"/></clipPath><clipPath id="dab9886ab4"><path d="M 0 217.914062 L 375 217.914062 L 375 264.519531 L 0 264.519531 Z M 0 217.914062 " clip-rule="nonzero"/></clipPath><clipPath id="0c123a31b3"><path d="M 187.5 217.914062 L 379.511719 264.519531 L -4.511719 264.519531 Z M 187.5 217.914062 " clip-rule="nonzero"/></clipPath><clipPath id="adecaf0336"><path d="M 121.089844 135.730469 L 253.972656 135.730469 L 253.972656 199.792969 L 121.089844 199.792969 Z M 121.089844 135.730469 " clip-rule="nonzero"/></clipPath><clipPath id="1e7edb9a5e"><path d="M 130.347656 165.324219 C 147.222656 147.242188 147.851562 146.71875 148.796875 146.089844 C 149.632812 145.460938 150.472656 144.9375 151.3125 144.621094 C 152.203125 144.308594 153.199219 143.886719 153.984375 144.046875 C 154.71875 144.203125 155.503906 144.78125 155.976562 145.511719 C 156.605469 146.507812 156.707031 148.132812 156.867188 150.074219 C 157.074219 153.21875 156.972656 157.933594 156.132812 162.914062 C 154.980469 170.09375 150.785156 183.457031 148.796875 188.804688 C 147.851562 191.320312 147.117188 194.097656 146.332031 194.203125 C 145.914062 194.308594 145.230469 193.625 145.125 192.996094 C 144.863281 191.792969 146.277344 188.855469 147.539062 186.761719 C 149.058594 184.140625 152.148438 181.519531 154.089844 178.847656 C 155.871094 176.382812 156.917969 174.757812 158.753906 171.457031 C 162.210938 165.429688 169.652344 148.972656 172.273438 144.832031 C 173.164062 143.523438 173.429688 143.207031 174.320312 142.367188 C 175.417969 141.214844 177.148438 139.851562 178.667969 138.910156 C 180.1875 138.019531 181.867188 137.335938 183.386719 136.8125 C 184.75 136.339844 186.269531 135.871094 187.472656 135.972656 C 188.3125 136.027344 188.992188 136.289062 189.726562 136.8125 C 190.777344 137.496094 192.085938 138.910156 192.820312 140.113281 C 193.449219 141.214844 193.710938 142.683594 193.867188 143.835938 C 193.972656 144.78125 193.972656 145.25 193.761719 146.457031 C 193.394531 149.390625 191.875 156.625 190.042969 161.027344 C 188.3125 165.167969 184.957031 168.730469 183.386719 172.242188 C 182.023438 175.175781 181.132812 178.21875 180.609375 180.523438 C 180.242188 182.199219 180.136719 183.144531 180.03125 184.769531 C 179.925781 187.023438 179.71875 190.847656 180.1875 192.839844 C 180.449219 194.097656 180.765625 195.199219 181.550781 195.722656 C 182.390625 196.296875 184.121094 196.507812 185.117188 196.035156 C 186.164062 195.566406 186.582031 193.78125 187.683594 192.578125 C 189.152344 190.953125 191.140625 189.222656 193.292969 187.441406 C 195.910156 185.1875 199.738281 183.039062 202.304688 180.3125 C 204.714844 177.691406 206.183594 174.128906 208.332031 171.507812 C 210.273438 169.148438 212.578125 167.683594 214.570312 165.21875 C 216.824219 162.390625 219.234375 158.300781 221.015625 155.367188 C 222.378906 153.007812 223.53125 150.753906 224.371094 148.867188 C 225 147.558594 225.574219 146.300781 225.785156 145.304688 C 225.941406 144.621094 225.941406 144.097656 225.785156 143.574219 C 225.679688 142.996094 225.367188 142.421875 225 141.949219 C 224.582031 141.371094 224.003906 140.847656 223.21875 140.480469 C 222.167969 140.011719 220.28125 139.746094 218.867188 139.746094 C 217.558594 139.746094 216.351562 140.011719 215.09375 140.324219 C 213.730469 140.640625 212.316406 141.058594 211.058594 141.636719 C 209.75 142.210938 208.542969 143.15625 207.285156 143.941406 C 206.078125 144.675781 204.820312 145.355469 203.722656 146.300781 C 202.566406 147.347656 201.046875 148.65625 200.417969 149.96875 C 199.894531 151.171875 199.84375 152.378906 199.894531 153.742188 C 199.949219 155.3125 200.261719 157.359375 200.996094 158.878906 C 201.675781 160.34375 202.828125 161.761719 204.140625 162.597656 C 205.554688 163.488281 207.023438 163.648438 209.382812 163.855469 C 214.152344 164.378906 226.257812 162.964844 231.289062 163.332031 C 233.910156 163.59375 234.957031 163.648438 237.316406 164.539062 C 241.246094 165.953125 249.527344 170.878906 251.9375 172.921875 C 252.882812 173.710938 253.511719 174.179688 253.667969 174.914062 C 253.824219 175.648438 253.5625 176.382812 252.988281 177.273438 C 251.730469 179.109375 246.75 182.621094 244.234375 184.140625 C 242.558594 185.1875 241.351562 185.660156 239.777344 186.183594 C 238.101562 186.707031 236.476562 187.125 234.484375 187.335938 C 231.917969 187.546875 228.667969 187.441406 225.679688 187.023438 C 222.429688 186.601562 219.757812 185.867188 215.878906 184.664062 C 209.695312 182.777344 199.949219 177.851562 192.503906 176.015625 C 185.953125 174.445312 179.246094 174.078125 173.636719 173.65625 C 169.078125 173.34375 165.042969 173.289062 161.269531 173.394531 C 158.019531 173.5 155.816406 173.710938 152.304688 174.179688 C 147.171875 174.914062 138.679688 176.226562 133.332031 177.796875 C 129.195312 178.949219 124.265625 181.886719 122.746094 181.9375 C 122.328125 181.992188 122.117188 181.886719 121.910156 181.730469 C 121.644531 181.519531 121.28125 180.996094 121.332031 180.628906 C 121.382812 180.15625 121.910156 179.421875 122.328125 179.316406 C 122.746094 179.214844 123.585938 179.578125 123.847656 179.945312 C 124.058594 180.261719 124.058594 180.890625 123.898438 181.203125 C 123.691406 181.519531 123.21875 181.886719 122.851562 181.9375 C 122.484375 181.992188 121.960938 181.78125 121.699219 181.519531 C 121.4375 181.257812 121.28125 180.679688 121.382812 180.3125 C 121.4375 179.945312 121.699219 179.738281 122.222656 179.371094 C 123.691406 178.320312 128.722656 176.59375 132.808594 175.492188 C 138.261719 173.972656 146.75 172.558594 152.042969 171.824219 C 155.660156 171.351562 157.914062 171.140625 161.269531 170.984375 C 165.148438 170.878906 169.390625 170.984375 173.847656 171.246094 C 178.984375 171.5625 186.425781 172.292969 190.355469 173.027344 C 192.664062 173.449219 193.394531 173.710938 195.648438 174.445312 C 199.894531 175.804688 208.070312 179.476562 213.574219 181.152344 C 218.027344 182.515625 222.066406 183.667969 225.941406 184.085938 C 229.402344 184.507812 232.808594 184.664062 235.742188 184.140625 C 238.257812 183.71875 240.25 183.039062 242.503906 181.78125 C 245.230469 180.261719 250.734375 177.273438 250.523438 175.074219 C 250.3125 172.398438 240.355469 168.46875 236.738281 167.210938 C 234.589844 166.425781 233.59375 166.425781 231.339844 166.320312 C 227.515625 166.109375 220.335938 167.210938 216.039062 167.261719 C 212.839844 167.261719 210.0625 167.261719 207.757812 166.898438 C 206.078125 166.632812 204.664062 166.320312 203.457031 165.691406 C 202.464844 165.21875 201.675781 164.589844 200.941406 163.910156 C 200.15625 163.121094 199.421875 162.335938 198.847656 161.339844 C 198.164062 160.136719 197.589844 158.5625 197.273438 157.148438 C 196.960938 155.628906 196.960938 153.792969 197.066406 152.484375 C 197.167969 151.539062 197.222656 150.910156 197.589844 150.019531 C 198.007812 148.917969 198.953125 147.558594 199.789062 146.5625 C 200.523438 145.617188 201.152344 145.042969 202.253906 144.097656 C 204.085938 142.628906 207.285156 140.167969 210.113281 138.855469 C 212.945312 137.597656 216.5625 136.445312 219.285156 136.339844 C 221.382812 136.339844 223.480469 136.917969 225.050781 137.652344 C 226.257812 138.28125 227.304688 139.328125 227.988281 140.167969 C 228.457031 140.796875 228.722656 141.269531 228.929688 142 C 229.140625 143.050781 229.140625 144.570312 228.824219 146.039062 C 228.40625 147.925781 227.460938 149.863281 226.152344 152.328125 C 224.003906 156.308594 219.445312 163.386719 216.457031 167.105469 C 214.464844 169.675781 212.628906 170.878906 210.742188 173.1875 C 208.59375 175.910156 207.023438 179.789062 204.507812 182.566406 C 201.9375 185.398438 198.113281 187.703125 195.546875 189.957031 C 193.5 191.738281 191.5625 193.417969 190.199219 194.988281 C 189.253906 196.195312 188.835938 197.609375 187.996094 198.34375 C 187.367188 198.972656 186.84375 199.339844 186.007812 199.496094 C 184.644531 199.808594 181.8125 199.496094 180.554688 199.023438 C 179.820312 198.761719 179.402344 198.449219 178.929688 197.871094 C 178.195312 197.03125 177.359375 195.828125 177.042969 194.410156 C 176.574219 192.523438 177.097656 189.539062 177.203125 187.285156 C 177.304688 185.34375 177.359375 183.773438 177.726562 181.78125 C 178.144531 179.421875 179.089844 176.433594 179.980469 174.128906 C 180.710938 172.085938 181.339844 170.566406 182.390625 168.574219 C 183.753906 166.003906 186.582031 162.492188 187.578125 160.242188 C 188.15625 158.878906 188.261719 158.355469 188.625 156.78125 C 189.308594 153.792969 190.828125 145.933594 190.671875 143.523438 C 190.617188 142.628906 190.460938 142.316406 190.09375 141.6875 C 189.675781 140.796875 188.625 139.433594 187.839844 139.015625 C 187.316406 138.699219 186.898438 138.753906 186.269531 138.804688 C 185.273438 138.855469 183.753906 139.222656 182.441406 139.746094 C 181.027344 140.324219 179.402344 141.214844 178.09375 142.265625 C 176.730469 143.3125 175.785156 144.097656 174.371094 146.089844 C 170.964844 150.859375 164.464844 166.6875 160.953125 172.871094 C 159.066406 176.277344 157.914062 178.113281 156.132812 180.628906 C 154.351562 183.195312 151.675781 185.554688 150.210938 188.070312 C 148.953125 190.273438 148.53125 193.3125 147.695312 194.777344 C 147.222656 195.566406 146.910156 196.195312 146.332031 196.457031 C 145.648438 196.71875 144.339844 196.664062 143.921875 196.246094 C 143.5 195.878906 143.398438 195.144531 143.5 194.359375 C 143.710938 192.890625 145.335938 191.058594 146.382812 188.28125 C 148.480469 182.777344 152.570312 169.675781 153.722656 162.652344 C 154.507812 157.882812 154.875 153.269531 154.296875 150.441406 C 153.984375 148.816406 153.460938 147.03125 152.515625 146.769531 C 151.414062 146.507812 149.6875 148.394531 147.800781 150.125 C 143.972656 153.480469 134.539062 165.902344 132.390625 167.421875 C 131.972656 167.789062 131.761719 167.839844 131.445312 167.839844 C 131.082031 167.839844 130.398438 167.628906 130.1875 167.261719 C 129.925781 166.84375 130.347656 165.324219 130.347656 165.324219 " clip-rule="nonzero"/></clipPath><clipPath id="f7c2856ee6"><path d="M 0 96.605469 L 375 96.605469 L 375 124.355469 L 0 124.355469 Z M 0 96.605469 " clip-rule="nonzero"/></clipPath><clipPath id="425715e618"><path d="M 187.5 96.605469 L 375 110.480469 L 187.5 124.355469 L 0 110.480469 Z M 187.5 96.605469 " clip-rule="nonzero"/></clipPath><clipPath id="1584c1a5a8"><path d="M 0 250.988281 L 375 250.988281 L 375 278.738281 L 0 278.738281 Z M 0 250.988281 " clip-rule="nonzero"/></clipPath><clipPath id="5b60c13eba"><path d="M 187.5 250.988281 L 375 264.863281 L 187.5 278.738281 L 0 264.863281 Z M 187.5 250.988281 " clip-rule="nonzero"/></clipPath></defs><g clip-path="url(#180674a409)"><path fill="#545454" d="M 0 110.480469 L 374.871094 110.480469 L 374.871094 264.519531 L 0 264.519531 Z M 0 110.480469 " fill-opacity="1" fill-rule="nonzero"/></g><g clip-path="url(#dab9886ab4)"><g clip-path="url(#0c123a31b3)"><path fill="#ffde59" d="M -4.511719 217.914062 L 379.4375 217.914062 L 379.4375 264.519531 L -4.511719 264.519531 Z M -4.511719 217.914062 " fill-opacity="1" fill-rule="nonzero"/></g></g><g clip-path="url(#adecaf0336)"><g clip-path="url(#1e7edb9a5e)"><path fill="#ffffff" d="M 119.234375 133.878906 L 255.828125 133.878906 L 255.828125 201.644531 L 119.234375 201.644531 Z M 119.234375 133.878906 " fill-opacity="1" fill-rule="nonzero"/></g></g><g clip-path="url(#f7c2856ee6)"><g clip-path="url(#425715e618)"><path fill="#747474" d="M 0 96.605469 L 374.949219 96.605469 L 374.949219 124.355469 L 0 124.355469 Z M 0 96.605469 " fill-opacity="1" fill-rule="nonzero"/></g></g><g clip-path="url(#1584c1a5a8)"><g clip-path="url(#5b60c13eba)"><path fill="#747474" d="M 0 250.988281 L 374.949219 250.988281 L 374.949219 278.738281 L 0 278.738281 Z M 0 250.988281 " fill-opacity="1" fill-rule="nonzero"/></g></g><g fill="#000000" fill-opacity="1"><g transform="translate(161.134609, 243.840882)"><g><path d="M 6.03125 -13.53125 C 7.539062 -13.53125 8.734375 -13.175781 9.609375 -12.46875 C 10.492188 -11.769531 10.96875 -10.800781 11.03125 -9.5625 L 9.328125 -9.453125 C 9.234375 -10.304688 8.925781 -10.9375 8.40625 -11.34375 C 7.882812 -11.75 7.113281 -11.953125 6.09375 -11.953125 C 5.132812 -11.953125 4.382812 -11.773438 3.84375 -11.421875 C 3.3125 -11.066406 3.046875 -10.585938 3.046875 -9.984375 C 3.046875 -9.585938 3.160156 -9.25 3.390625 -8.96875 C 3.628906 -8.6875 3.96875 -8.488281 4.40625 -8.375 C 4.507812 -8.34375 4.875 -8.226562 5.5 -8.03125 C 6.132812 -7.84375 6.941406 -7.644531 7.921875 -7.4375 C 9.085938 -7.175781 9.960938 -6.707031 10.546875 -6.03125 C 11.128906 -5.363281 11.421875 -4.601562 11.421875 -3.75 C 11.421875 -3.03125 11.222656 -2.367188 10.828125 -1.765625 C 10.441406 -1.160156 9.875 -0.675781 9.125 -0.3125 C 8.382812 0.0390625 7.503906 0.21875 6.484375 0.21875 C 5.316406 0.21875 4.3125 0.0351562 3.46875 -0.328125 C 2.632812 -0.703125 1.992188 -1.226562 1.546875 -1.90625 C 1.097656 -2.582031 0.863281 -3.375 0.84375 -4.28125 L 2.515625 -4.421875 C 2.585938 -3.367188 3 -2.59375 3.75 -2.09375 C 4.507812 -1.601562 5.40625 -1.359375 6.4375 -1.359375 C 7.46875 -1.359375 8.273438 -1.566406 8.859375 -1.984375 C 9.453125 -2.410156 9.75 -2.984375 9.75 -3.703125 C 9.75 -4.679688 8.957031 -5.363281 7.375 -5.75 L 6.34375 -6 C 5.695312 -6.15625 4.953125 -6.351562 4.109375 -6.59375 C 3.253906 -6.84375 2.582031 -7.257812 2.09375 -7.84375 C 1.613281 -8.4375 1.375 -9.113281 1.375 -9.875 C 1.375 -10.570312 1.554688 -11.195312 1.921875 -11.75 C 2.296875 -12.3125 2.832031 -12.75 3.53125 -13.0625 C 4.238281 -13.375 5.070312 -13.53125 6.03125 -13.53125 Z M 6.03125 -13.53125 "/></g></g></g><g fill="#000000" fill-opacity="1"><g transform="translate(181.307786, 243.840882)"><g><path d="M 10.96875 -11.75 L 6.5625 -11.75 L 6.5625 0 L 4.796875 0 L 4.796875 -11.75 L 0.40625 -11.75 L 0.40625 -13.3125 L 10.96875 -13.3125 Z M 10.96875 -11.75 "/></g></g></g><g fill="#000000" fill-opacity="1"><g transform="translate(200.439767, 243.840882)"><g><path d="M 3.234375 -5.453125 C 3.234375 -4.304688 3.359375 -3.476562 3.609375 -2.96875 C 3.835938 -2.488281 4.203125 -2.097656 4.703125 -1.796875 C 5.203125 -1.503906 5.84375 -1.359375 6.625 -1.359375 C 7.695312 -1.359375 8.492188 -1.570312 9.015625 -2 C 9.535156 -2.425781 9.859375 -2.914062 9.984375 -3.46875 C 10.109375 -4.019531 10.171875 -4.671875 10.171875 -5.421875 L 10.171875 -13.3125 L 11.9375 -13.3125 L 11.9375 -5.46875 C 11.9375 -4.800781 11.894531 -4.148438 11.8125 -3.515625 C 11.738281 -2.890625 11.507812 -2.300781 11.125 -1.75 C 10.695312 -1.144531 10.132812 -0.664062 9.4375 -0.3125 C 8.75 0.0390625 7.84375 0.21875 6.71875 0.21875 C 5.625 0.21875 4.738281 0.0546875 4.0625 -0.265625 C 3.382812 -0.585938 2.820312 -1.03125 2.375 -1.59375 C 1.976562 -2.09375 1.726562 -2.675781 1.625 -3.34375 C 1.519531 -4.007812 1.46875 -4.710938 1.46875 -5.453125 L 1.46875 -13.3125 L 3.234375 -13.3125 Z M 3.234375 -5.453125 "/></g></g></g><g fill="#ffffff" fill-opacity="1"><g transform="translate(146.688517, 212.522269)"><g><path d="M 6.03125 -7.3125 C 6.300781 -7.113281 6.5 -6.875 6.625 -6.59375 C 6.75 -6.3125 6.816406 -6.019531 6.828125 -5.71875 C 6.835938 -5.15625 6.664062 -4.691406 6.3125 -4.328125 C 5.96875 -3.960938 5.441406 -3.710938 4.734375 -3.578125 C 5.003906 -3.460938 5.25 -3.296875 5.46875 -3.078125 C 5.695312 -2.867188 5.941406 -2.578125 6.203125 -2.203125 L 7.578125 -0.171875 L 6.3125 -0.15625 L 5.296875 -1.65625 C 4.929688 -2.175781 4.644531 -2.554688 4.4375 -2.796875 C 4.226562 -3.035156 4.015625 -3.203125 3.796875 -3.296875 C 3.585938 -3.398438 3.320312 -3.453125 3 -3.453125 L 1.78125 -3.421875 L 1.859375 -0.046875 L 0.859375 -0.015625 L 0.671875 -7.640625 L 4.171875 -7.734375 C 4.617188 -7.742188 4.984375 -7.71875 5.265625 -7.65625 C 5.554688 -7.59375 5.8125 -7.476562 6.03125 -7.3125 Z M 5.359375 -4.734375 C 5.515625 -4.859375 5.625 -5.003906 5.6875 -5.171875 C 5.757812 -5.335938 5.796875 -5.507812 5.796875 -5.6875 C 5.785156 -6.132812 5.613281 -6.445312 5.28125 -6.625 C 4.957031 -6.800781 4.582031 -6.890625 4.15625 -6.890625 L 1.703125 -6.828125 L 1.765625 -4.3125 L 4.046875 -4.359375 C 4.398438 -4.367188 4.671875 -4.40625 4.859375 -4.46875 C 5.046875 -4.53125 5.210938 -4.617188 5.359375 -4.734375 Z M 5.359375 -4.734375 "/></g></g></g><g fill="#ffffff" fill-opacity="1"><g transform="translate(154.380882, 212.340179)"><g><path d="M 1.109375 -7.65625 L 1.703125 -6.765625 C 1.867188 -6.492188 2.078125 -6.195312 2.328125 -5.875 C 2.859375 -5.125 3.238281 -4.535156 3.46875 -4.109375 C 3.664062 -4.492188 3.929688 -4.953125 4.265625 -5.484375 L 5.6875 -7.765625 L 6.859375 -7.796875 L 3.921875 -3.328125 L 4 -0.09375 L 3 -0.078125 L 2.921875 -3.3125 L -0.140625 -7.625 Z M 1.109375 -7.65625 "/></g></g></g><g fill="#ffffff" fill-opacity="1"><g transform="translate(161.487264, 212.171961)"><g><path d="M 2.765625 -7.71875 C 3.242188 -7.738281 3.664062 -7.660156 4.03125 -7.484375 C 4.394531 -7.304688 4.675781 -7.0625 4.875 -6.75 C 5.082031 -6.4375 5.191406 -6.085938 5.203125 -5.703125 C 5.203125 -5.296875 5.101562 -4.910156 4.90625 -4.546875 C 4.71875 -4.179688 4.476562 -3.847656 4.1875 -3.546875 C 3.90625 -3.253906 3.546875 -2.914062 3.109375 -2.53125 C 2.660156 -2.144531 2.320312 -1.835938 2.09375 -1.609375 C 1.875 -1.390625 1.703125 -1.160156 1.578125 -0.921875 L 5.328125 -1.015625 L 5.34375 -0.125 L 0.296875 0 C 0.285156 -0.4375 0.429688 -0.882812 0.734375 -1.34375 C 1.046875 -1.800781 1.472656 -2.265625 2.015625 -2.734375 C 2.554688 -3.203125 2.976562 -3.585938 3.28125 -3.890625 C 3.59375 -4.191406 3.832031 -4.488281 4 -4.78125 C 4.164062 -5.070312 4.25 -5.367188 4.25 -5.671875 C 4.238281 -6.054688 4.09375 -6.367188 3.8125 -6.609375 C 3.539062 -6.847656 3.195312 -6.960938 2.78125 -6.953125 C 2.351562 -6.941406 2 -6.800781 1.71875 -6.53125 C 1.445312 -6.269531 1.3125 -5.882812 1.3125 -5.375 L 0.359375 -5.46875 C 0.398438 -6.1875 0.628906 -6.738281 1.046875 -7.125 C 1.472656 -7.507812 2.046875 -7.707031 2.765625 -7.71875 Z M 2.765625 -7.71875 "/></g></g></g><g fill="#ffffff" fill-opacity="1"><g transform="translate(167.41102, 212.031737)"><g><path d="M 3.203125 -7.734375 L 3.8125 -7.75 L 4 -0.09375 L 3.0625 -0.078125 L 2.921875 -6.046875 C 2.679688 -5.816406 2.390625 -5.59375 2.046875 -5.375 C 1.703125 -5.164062 1.378906 -5 1.078125 -4.875 L 1.046875 -5.78125 C 1.535156 -6.019531 1.976562 -6.316406 2.375 -6.671875 C 2.769531 -7.023438 3.046875 -7.378906 3.203125 -7.734375 Z M 3.203125 -7.734375 "/></g></g></g><g fill="#ffffff" fill-opacity="1"><g transform="translate(173.334775, 211.891513)"><g><path d="M 3.203125 -7.734375 L 3.8125 -7.75 L 4 -0.09375 L 3.0625 -0.078125 L 2.921875 -6.046875 C 2.679688 -5.816406 2.390625 -5.59375 2.046875 -5.375 C 1.703125 -5.164062 1.378906 -5 1.078125 -4.875 L 1.046875 -5.78125 C 1.535156 -6.019531 1.976562 -6.316406 2.375 -6.671875 C 2.769531 -7.023438 3.046875 -7.378906 3.203125 -7.734375 Z M 3.203125 -7.734375 "/></g></g></g><g fill="#ffffff" fill-opacity="1"><g transform="translate(179.258531, 211.751288)"><g><path d="M 2.78125 -7.71875 C 3.582031 -7.738281 4.203125 -7.429688 4.640625 -6.796875 C 5.085938 -6.160156 5.328125 -5.191406 5.359375 -3.890625 C 5.390625 -2.578125 5.203125 -1.59375 4.796875 -0.9375 C 4.390625 -0.289062 3.78125 0.0390625 2.96875 0.0625 C 1.3125 0.09375 0.453125 -1.1875 0.390625 -3.78125 C 0.359375 -5.050781 0.539062 -6.019531 0.9375 -6.6875 C 1.332031 -7.363281 1.945312 -7.707031 2.78125 -7.71875 Z M 1.34375 -3.796875 C 1.375 -2.742188 1.515625 -1.960938 1.765625 -1.453125 C 2.015625 -0.941406 2.410156 -0.691406 2.953125 -0.703125 C 3.484375 -0.722656 3.863281 -0.992188 4.09375 -1.515625 C 4.332031 -2.035156 4.4375 -2.820312 4.40625 -3.875 C 4.382812 -4.96875 4.238281 -5.757812 3.96875 -6.25 C 3.707031 -6.738281 3.316406 -6.972656 2.796875 -6.953125 C 2.265625 -6.941406 1.882812 -6.675781 1.65625 -6.15625 C 1.425781 -5.632812 1.320312 -4.847656 1.34375 -3.796875 Z M 1.34375 -3.796875 "/></g></g></g><g fill="#ffffff" fill-opacity="1"><g transform="translate(185.182286, 211.611064)"><g/></g></g><g fill="#ffffff" fill-opacity="1"><g transform="translate(188.144171, 211.540952)"><g><path d="M 3.265625 -7.84375 C 4.128906 -7.863281 4.816406 -7.675781 5.328125 -7.28125 C 5.847656 -6.882812 6.132812 -6.335938 6.1875 -5.640625 L 5.21875 -5.53125 C 5.15625 -6.03125 4.972656 -6.394531 4.671875 -6.625 C 4.367188 -6.851562 3.925781 -6.957031 3.34375 -6.9375 C 2.789062 -6.925781 2.363281 -6.816406 2.0625 -6.609375 C 1.757812 -6.398438 1.609375 -6.117188 1.609375 -5.765625 C 1.617188 -5.535156 1.691406 -5.34375 1.828125 -5.1875 C 1.972656 -5.03125 2.171875 -4.921875 2.421875 -4.859375 C 2.472656 -4.847656 2.679688 -4.789062 3.046875 -4.6875 C 3.410156 -4.582031 3.878906 -4.476562 4.453125 -4.375 C 5.117188 -4.226562 5.625 -3.96875 5.96875 -3.59375 C 6.3125 -3.226562 6.488281 -2.800781 6.5 -2.3125 C 6.507812 -1.894531 6.40625 -1.507812 6.1875 -1.15625 C 5.96875 -0.800781 5.644531 -0.515625 5.21875 -0.296875 C 4.800781 -0.0859375 4.300781 0.0195312 3.71875 0.03125 C 3.050781 0.0507812 2.472656 -0.0351562 1.984375 -0.234375 C 1.492188 -0.441406 1.113281 -0.734375 0.84375 -1.109375 C 0.582031 -1.492188 0.441406 -1.945312 0.421875 -2.46875 L 1.375 -2.5625 C 1.4375 -1.957031 1.6875 -1.519531 2.125 -1.25 C 2.5625 -0.976562 3.078125 -0.851562 3.671875 -0.875 C 4.265625 -0.882812 4.722656 -1.007812 5.046875 -1.25 C 5.378906 -1.5 5.539062 -1.832031 5.53125 -2.25 C 5.519531 -2.8125 5.0625 -3.191406 4.15625 -3.390625 L 3.5625 -3.53125 C 3.1875 -3.601562 2.753906 -3.707031 2.265625 -3.84375 C 1.773438 -3.96875 1.382812 -4.195312 1.09375 -4.53125 C 0.800781 -4.863281 0.648438 -5.242188 0.640625 -5.671875 C 0.640625 -6.066406 0.738281 -6.425781 0.9375 -6.75 C 1.144531 -7.082031 1.445312 -7.34375 1.84375 -7.53125 C 2.238281 -7.726562 2.710938 -7.832031 3.265625 -7.84375 Z M 3.265625 -7.84375 "/></g></g></g><g fill="#ffffff" fill-opacity="1"><g transform="translate(195.250553, 211.372734)"><g><path d="M 6.125 -6.890625 L 3.609375 -6.828125 L 3.765625 -0.09375 L 2.75 -0.0625 L 2.59375 -6.796875 L 0.078125 -6.734375 L 0.046875 -7.625 L 6.09375 -7.78125 Z M 6.125 -6.890625 "/></g></g></g><g fill="#ffffff" fill-opacity="1"><g transform="translate(201.760291, 211.218638)"><g><path d="M 1.78125 -3.171875 C 1.800781 -2.515625 1.878906 -2.039062 2.015625 -1.75 C 2.160156 -1.476562 2.378906 -1.257812 2.671875 -1.09375 C 2.960938 -0.9375 3.332031 -0.863281 3.78125 -0.875 C 4.394531 -0.882812 4.847656 -1.015625 5.140625 -1.265625 C 5.429688 -1.515625 5.609375 -1.800781 5.671875 -2.125 C 5.734375 -2.445312 5.757812 -2.820312 5.75 -3.25 L 5.640625 -7.765625 L 6.65625 -7.78125 L 6.765625 -3.296875 C 6.773438 -2.910156 6.757812 -2.535156 6.71875 -2.171875 C 6.6875 -1.816406 6.5625 -1.476562 6.34375 -1.15625 C 6.113281 -0.800781 5.800781 -0.515625 5.40625 -0.296875 C 5.007812 -0.0859375 4.488281 0.0195312 3.84375 0.03125 C 3.21875 0.0507812 2.707031 -0.0234375 2.3125 -0.203125 C 1.925781 -0.378906 1.601562 -0.628906 1.34375 -0.953125 C 1.101562 -1.234375 0.945312 -1.5625 0.875 -1.9375 C 0.8125 -2.320312 0.773438 -2.722656 0.765625 -3.140625 L 0.65625 -7.640625 L 1.671875 -7.671875 Z M 1.78125 -3.171875 "/></g></g></g><g fill="#ffffff" fill-opacity="1"><g transform="translate(209.452656, 211.036549)"><g><path d="M 5.40625 -7.359375 C 5.9375 -7.078125 6.335938 -6.648438 6.609375 -6.078125 C 6.890625 -5.503906 7.039062 -4.828125 7.0625 -4.046875 C 7.082031 -3.398438 7 -2.789062 6.8125 -2.21875 C 6.632812 -1.65625 6.359375 -1.203125 5.984375 -0.859375 C 5.691406 -0.609375 5.367188 -0.421875 5.015625 -0.296875 C 4.671875 -0.171875 4.234375 -0.101562 3.703125 -0.09375 L 0.859375 -0.015625 L 0.671875 -7.640625 L 3.4375 -7.703125 C 3.882812 -7.722656 4.253906 -7.707031 4.546875 -7.65625 C 4.847656 -7.613281 5.132812 -7.515625 5.40625 -7.359375 Z M 6.015625 -4.015625 C 5.992188 -4.796875 5.859375 -5.394531 5.609375 -5.8125 C 5.359375 -6.226562 5.066406 -6.503906 4.734375 -6.640625 C 4.398438 -6.773438 3.984375 -6.835938 3.484375 -6.828125 L 1.703125 -6.78125 L 1.84375 -0.9375 L 3.515625 -0.96875 C 4.015625 -0.976562 4.429688 -1.046875 4.765625 -1.171875 C 5.097656 -1.304688 5.394531 -1.59375 5.65625 -2.03125 C 5.914062 -2.476562 6.035156 -3.140625 6.015625 -4.015625 Z M 6.015625 -4.015625 "/></g></g></g><g fill="#ffffff" fill-opacity="1"><g transform="translate(217.145021, 210.854459)"><g><path d="M 2 -0.046875 L 0.984375 -0.015625 L 0.796875 -7.640625 L 1.8125 -7.671875 Z M 2 -0.046875 "/></g></g></g><g fill="#ffffff" fill-opacity="1"><g transform="translate(220.106906, 210.784347)"><g><path d="M 3.828125 -7.859375 C 4.585938 -7.878906 5.257812 -7.726562 5.84375 -7.40625 C 6.425781 -7.09375 6.875 -6.640625 7.1875 -6.046875 C 7.507812 -5.460938 7.679688 -4.773438 7.703125 -3.984375 C 7.722656 -3.203125 7.582031 -2.507812 7.28125 -1.90625 C 6.988281 -1.300781 6.570312 -0.832031 6.03125 -0.5 C 5.488281 -0.164062 4.878906 0.0078125 4.203125 0.03125 C 3.460938 0.0390625 2.8125 -0.113281 2.25 -0.4375 C 1.6875 -0.757812 1.242188 -1.210938 0.921875 -1.796875 C 0.597656 -2.378906 0.425781 -3.023438 0.40625 -3.734375 C 0.394531 -4.546875 0.535156 -5.257812 0.828125 -5.875 C 1.117188 -6.488281 1.523438 -6.96875 2.046875 -7.3125 C 2.566406 -7.664062 3.160156 -7.847656 3.828125 -7.859375 Z M 1.453125 -3.734375 C 1.472656 -3.140625 1.597656 -2.617188 1.828125 -2.171875 C 2.054688 -1.734375 2.367188 -1.394531 2.765625 -1.15625 C 3.171875 -0.925781 3.625 -0.816406 4.125 -0.828125 C 4.644531 -0.835938 5.097656 -0.96875 5.484375 -1.21875 C 5.878906 -1.476562 6.175781 -1.84375 6.375 -2.3125 C 6.582031 -2.78125 6.675781 -3.328125 6.65625 -3.953125 C 6.644531 -4.578125 6.523438 -5.125 6.296875 -5.59375 C 6.078125 -6.0625 5.769531 -6.410156 5.375 -6.640625 C 4.976562 -6.878906 4.53125 -6.992188 4.03125 -6.984375 C 3.195312 -6.960938 2.550781 -6.664062 2.09375 -6.09375 C 1.644531 -5.53125 1.429688 -4.742188 1.453125 -3.734375 Z M 1.453125 -3.734375 "/></g></g></g></svg>