<svg xmlns="http://www.w3.org/2000/svg" xmlns:xlink="http://www.w3.org/1999/xlink" width="500" zoomAndPan="magnify" viewBox="0 0 375 374.999991" height="500" preserveAspectRatio="xMidYMid meet" version="1.0"><defs><g/><clipPath id="554b1e024c"><path d="M 26.367188 0 L 348.632812 0 L 348.632812 375 L 26.367188 375 Z M 26.367188 0 " clip-rule="nonzero"/></clipPath><clipPath id="f43c61dab2"><path d="M 187.5 0 L 348.632812 93.75 L 348.632812 281.25 L 187.5 375 L 26.367188 281.25 L 26.367188 93.75 Z M 187.5 0 " clip-rule="nonzero"/></clipPath><clipPath id="a694bc044a"><path d="M 91 104.222656 L 277.777344 104.222656 L 277.777344 207.664062 L 91 207.664062 Z M 91 104.222656 " clip-rule="nonzero"/></clipPath><clipPath id="eea868c0eb"><path d="M 135.75 132.066406 C 143.550781 132.066406 147.300781 131.617188 151.351562 129.441406 C 158.476562 125.46875 171.976562 108.667969 177.300781 105.59375 C 179.175781 104.542969 180.449219 104.242188 181.726562 104.242188 C 182.773438 104.167969 183.675781 104.46875 184.5 104.992188 C 185.324219 105.59375 186.148438 106.566406 186.601562 107.769531 C 187.199219 109.34375 187.273438 111.59375 186.898438 113.917969 C 186.449219 117.066406 184.949219 120.367188 183.148438 124.867188 C 180.148438 132.144531 174.226562 144.742188 169.800781 153.292969 C 165.976562 160.566406 160.648438 167.917969 158.476562 173.09375 C 157.199219 176.167969 156.675781 178.269531 156.226562 180.742188 C 155.851562 182.992188 155.324219 185.917969 155.851562 187.417969 C 156.226562 188.316406 156.976562 188.917969 157.800781 189.292969 C 158.625 189.742188 159.675781 189.96875 161.023438 189.59375 C 163.800781 188.917969 169.199219 185.316406 172.5 182.242188 C 175.800781 179.242188 178.125 175.269531 180.898438 171.367188 C 183.976562 167.019531 187.5 162.066406 190.125 157.191406 C 192.75 152.394531 194.324219 147.367188 196.726562 142.417969 C 199.199219 137.09375 202.648438 129.816406 204.898438 126.21875 C 206.101562 124.191406 206.773438 123.21875 208.125 121.792969 C 209.625 120.21875 211.800781 118.492188 213.75 117.292969 C 215.398438 116.242188 217.050781 115.34375 218.851562 114.96875 C 220.726562 114.519531 223.273438 114.367188 224.699219 114.894531 C 225.675781 115.269531 226.199219 116.242188 226.800781 116.917969 C 227.398438 117.59375 228 117.96875 228.375 118.867188 C 229.050781 120.292969 229.425781 122.542969 229.5 124.867188 C 229.726562 128.019531 229.199219 132.292969 228.523438 136.191406 C 227.699219 140.617188 226.574219 144.367188 224.699219 149.84375 C 221.851562 158.769531 214.5 175.792969 211.648438 184.191406 C 210.074219 188.917969 208.800781 191.917969 208.273438 195.367188 C 207.824219 198.367188 209.101562 203.09375 208.125 203.84375 C 207.601562 204.292969 205.875 203.691406 205.800781 203.316406 C 205.648438 202.492188 211.648438 199.941406 214.273438 197.917969 C 216.75 195.96875 218.699219 194.167969 221.175781 191.46875 C 224.773438 187.644531 229.726562 181.566406 233.101562 176.917969 C 235.949219 172.941406 238.5 168.59375 240.375 165.367188 C 241.648438 163.042969 242.25 162.066406 243.449219 159.367188 C 245.699219 154.117188 249.75 140.46875 252.074219 135.441406 C 253.273438 132.96875 254.476562 132.066406 255.148438 130.191406 C 255.75 128.242188 256.5 124.941406 255.824219 123.96875 C 255.375 123.367188 254.175781 123.144531 253.351562 123.441406 C 251.773438 124.042969 249.449219 127.867188 248.324219 129.667969 C 247.574219 130.941406 247.199219 131.617188 246.824219 133.191406 C 246.148438 135.894531 245.925781 141.742188 246.226562 144.816406 C 246.523438 146.84375 247.125 148.269531 247.800781 149.917969 C 248.476562 151.644531 249 153.292969 250.5 154.792969 C 252.75 157.117188 257.773438 158.992188 261.074219 161.316406 C 264.148438 163.566406 267.148438 165.59375 269.625 168.441406 C 272.324219 171.519531 275.324219 176.917969 276.601562 179.167969 C 277.125 180.066406 277.5 180.519531 277.648438 181.269531 C 277.726562 182.019531 277.648438 182.992188 277.273438 183.667969 C 276.75 184.492188 275.851562 185.167969 274.726562 185.769531 C 273 186.59375 270.375 187.191406 267.675781 187.492188 C 264 187.792969 260.175781 187.71875 254.773438 186.894531 C 244.875 185.242188 229.351562 179.46875 213.75 175.417969 C 193.351562 170.09375 161.023438 164.09375 142.5 158.242188 C 130.199219 154.417969 121.425781 150.441406 112.425781 146.617188 C 105 143.394531 94.5 139.792969 92.25 137.242188 C 91.5 136.34375 91.273438 135.367188 91.425781 134.84375 C 91.574219 134.394531 92.324219 133.941406 92.773438 133.941406 C 93.300781 133.941406 94.351562 134.542969 94.574219 134.992188 C 94.800781 135.441406 94.648438 136.269531 94.351562 136.644531 C 94.050781 137.019531 92.925781 137.46875 92.398438 137.242188 C 91.875 137.019531 91.125 135.519531 91.351562 134.992188 C 91.574219 134.46875 92.476562 134.09375 93.675781 134.09375 C 98.324219 134.242188 117.898438 145.492188 127.125 149.167969 C 133.425781 151.71875 135.976562 152.769531 143.398438 154.941406 C 158.699219 159.519531 195.300781 166.941406 214.726562 171.96875 C 228.226562 175.492188 242.023438 179.769531 248.851562 181.417969 C 251.773438 182.167969 252.75 182.542969 255.148438 182.769531 C 258.449219 183.144531 263.625 183.292969 266.925781 182.992188 C 269.398438 182.769531 272.773438 182.992188 273.300781 181.71875 C 273.976562 180.21875 269.699219 175.492188 268.574219 173.691406 C 267.898438 172.644531 267.75 172.269531 267 171.367188 C 265.425781 169.71875 262.050781 166.867188 259.199219 164.917969 C 256.273438 162.894531 251.625 161.242188 249.523438 159.667969 C 248.324219 158.84375 247.875 158.316406 247.050781 157.269531 C 245.925781 155.84375 244.574219 153.519531 243.75 151.492188 C 242.851562 149.394531 242.101562 147.292969 241.800781 144.816406 C 241.425781 141.742188 241.425781 137.691406 242.023438 134.46875 C 242.625 131.316406 244.199219 127.792969 245.398438 125.542969 C 246.300781 123.96875 247.125 122.84375 248.175781 121.792969 C 249.148438 120.742188 250.273438 119.691406 251.476562 119.242188 C 252.523438 118.792969 253.800781 118.71875 254.851562 118.867188 C 255.898438 119.019531 256.949219 119.46875 257.851562 120.066406 C 258.675781 120.667969 259.5 121.34375 259.949219 122.46875 C 260.476562 124.042969 260.398438 126.59375 259.800781 128.84375 C 259.050781 131.917969 256.425781 134.84375 254.625 138.894531 C 252 144.742188 249.375 154.71875 246.523438 160.941406 C 244.351562 165.816406 242.398438 169.191406 239.699219 173.542969 C 236.625 178.417969 232.5 184.117188 228.898438 188.617188 C 225.75 192.667969 222.976562 196.492188 219.523438 199.644531 C 216.148438 202.644531 211.273438 206.316406 208.425781 207.144531 C 206.851562 207.59375 205.351562 207.742188 204.523438 206.992188 C 203.550781 206.167969 203.699219 203.691406 203.699219 201.667969 C 203.625 199.042969 203.851562 196.566406 204.898438 192.519531 C 207 183.742188 216.449219 162.144531 219.75 152.242188 C 221.625 146.617188 222.75 142.941406 223.648438 138.667969 C 224.476562 135.066406 224.925781 131.617188 225 128.542969 C 225.074219 125.992188 225 123.144531 224.476562 121.492188 C 224.175781 120.441406 223.800781 119.46875 223.125 119.019531 C 222.449219 118.644531 221.476562 118.867188 220.425781 119.019531 C 219.148438 119.316406 217.5 119.917969 215.925781 120.816406 C 213.898438 122.019531 211.726562 123.441406 209.699219 125.992188 C 206.398438 129.894531 202.726562 137.992188 199.875 143.769531 C 197.324219 148.941406 195.824219 154.042969 193.273438 158.992188 C 190.648438 164.09375 187.273438 169.117188 184.125 173.769531 C 181.273438 177.96875 178.5 182.542969 175.351562 185.691406 C 172.726562 188.394531 169.199219 190.644531 166.949219 191.992188 C 165.449219 192.816406 164.398438 193.34375 163.125 193.71875 C 161.925781 194.019531 160.800781 194.242188 159.523438 194.167969 C 157.949219 193.941406 155.550781 193.191406 154.351562 192.292969 C 153.375 191.617188 152.925781 190.867188 152.476562 189.742188 C 151.875 187.941406 151.726562 184.867188 152.023438 182.167969 C 152.398438 178.867188 153.449219 175.269531 155.175781 171.21875 C 157.648438 165.519531 163.125 158.167969 166.5 151.71875 C 169.648438 145.644531 172.574219 139.34375 175.050781 133.71875 C 177.148438 128.917969 179.25 124.191406 180.523438 120.144531 C 181.5 117.066406 182.773438 113.691406 182.476562 111.59375 C 182.25 110.242188 181.574219 108.742188 180.75 108.519531 C 180 108.292969 179.023438 109.34375 177.976562 110.019531 C 176.25 111.21875 174.226562 112.792969 171.675781 115.042969 C 166.949219 119.09375 158.023438 129.742188 152.851562 132.894531 C 149.925781 134.617188 147.824219 134.917969 145.050781 135.519531 C 142.125 136.117188 137.476562 136.941406 135.523438 136.269531 C 134.476562 135.894531 133.648438 134.992188 133.574219 134.316406 C 133.425781 133.71875 133.875 132.894531 134.324219 132.519531 C 134.699219 132.21875 135.75 132.066406 135.75 132.066406 " clip-rule="nonzero"/></clipPath></defs><g clip-path="url(#554b1e024c)"><g clip-path="url(#f43c61dab2)"><path fill="#919191" d="M 26.367188 0 L 348.632812 0 L 348.632812 375.136719 L 26.367188 375.136719 Z M 26.367188 0 " fill-opacity="1" fill-rule="nonzero"/><path stroke-linecap="butt" transform="matrix(0.75, 0, 0, 0.75, 26.36719, 0)" fill="none" stroke-linejoin="miter" d="M 214.843747 0 L 429.687497 125 L 429.687497 375.000001 L 214.843747 500.000001 L -0.00000361141 375.000001 L -0.00000361141 125 Z M 214.843747 0 " stroke="#747474" stroke-width="28" stroke-opacity="1" stroke-miterlimit="4"/></g></g><g clip-path="url(#a694bc044a)"><g clip-path="url(#eea868c0eb)"><path fill="#ffffff" d="M 88.351562 101.242188 L 280.757812 101.242188 L 280.757812 210.21875 L 88.351562 210.21875 Z M 88.351562 101.242188 " fill-opacity="1" fill-rule="nonzero"/></g></g><g fill="#ffffff" fill-opacity="1"><g transform="translate(123.200401, 284.759226)"><g><path d="M 16.75 -37.625 C 20.945312 -37.625 24.269531 -36.640625 26.71875 -34.671875 C 29.164062 -32.710938 30.476562 -30.007812 30.65625 -26.5625 L 25.953125 -26.25 C 25.671875 -28.632812 24.804688 -30.394531 23.359375 -31.53125 C 21.910156 -32.664062 19.773438 -33.234375 16.953125 -33.234375 C 14.265625 -33.234375 12.179688 -32.738281 10.703125 -31.75 C 9.222656 -30.769531 8.484375 -29.4375 8.484375 -27.75 C 8.484375 -26.65625 8.804688 -25.71875 9.453125 -24.9375 C 10.109375 -24.164062 11.039062 -23.609375 12.25 -23.265625 C 12.519531 -23.191406 13.535156 -22.882812 15.296875 -22.34375 C 17.054688 -21.8125 19.296875 -21.253906 22.015625 -20.671875 C 25.253906 -19.953125 27.679688 -18.660156 29.296875 -16.796875 C 30.921875 -14.929688 31.734375 -12.8125 31.734375 -10.4375 C 31.734375 -8.4375 31.191406 -6.59375 30.109375 -4.90625 C 29.023438 -3.21875 27.445312 -1.875 25.375 -0.875 C 23.3125 0.125 20.863281 0.625 18.03125 0.625 C 14.800781 0.625 12.015625 0.109375 9.671875 -0.921875 C 7.328125 -1.960938 5.53125 -3.421875 4.28125 -5.296875 C 3.039062 -7.171875 2.390625 -9.367188 2.328125 -11.890625 L 6.984375 -12.296875 C 7.179688 -9.367188 8.332031 -7.210938 10.4375 -5.828125 C 12.539062 -4.453125 15.023438 -3.765625 17.890625 -3.765625 C 20.742188 -3.765625 22.988281 -4.347656 24.625 -5.515625 C 26.257812 -6.691406 27.078125 -8.28125 27.078125 -10.28125 C 27.078125 -13.007812 24.890625 -14.90625 20.515625 -15.96875 L 17.625 -16.6875 C 15.832031 -17.101562 13.765625 -17.65625 11.421875 -18.34375 C 9.046875 -19.03125 7.1875 -20.191406 5.84375 -21.828125 C 4.5 -23.472656 3.828125 -25.347656 3.828125 -27.453125 C 3.828125 -29.378906 4.34375 -31.117188 5.375 -32.671875 C 6.40625 -34.222656 7.894531 -35.4375 9.84375 -36.3125 C 11.789062 -37.1875 14.09375 -37.625 16.75 -37.625 Z M 16.75 -37.625 "/></g></g></g><g fill="#ffffff" fill-opacity="1"><g transform="translate(170.286449, 284.759226)"><g><path d="M 30.5 -32.671875 L 18.25 -32.671875 L 18.25 0 L 13.328125 0 L 13.328125 -32.671875 L 1.140625 -32.671875 L 1.140625 -37.015625 L 30.5 -37.015625 Z M 30.5 -32.671875 "/></g></g></g><g fill="#ffffff" fill-opacity="1"><g transform="translate(214.478125, 284.759226)"><g><path d="M 9 -15.140625 C 9 -11.972656 9.34375 -9.679688 10.03125 -8.265625 C 10.6875 -6.921875 11.703125 -5.832031 13.078125 -5 C 14.453125 -4.175781 16.226562 -3.765625 18.40625 -3.765625 C 21.394531 -3.765625 23.613281 -4.359375 25.0625 -5.546875 C 26.507812 -6.742188 27.40625 -8.109375 27.75 -9.640625 C 28.09375 -11.171875 28.265625 -12.988281 28.265625 -15.09375 L 28.265625 -37.015625 L 33.1875 -37.015625 L 33.1875 -15.203125 C 33.1875 -13.335938 33.070312 -11.535156 32.84375 -9.796875 C 32.625 -8.054688 31.976562 -6.410156 30.90625 -4.859375 C 29.738281 -3.171875 28.1875 -1.832031 26.25 -0.84375 C 24.320312 0.132812 21.789062 0.625 18.65625 0.625 C 15.625 0.625 13.171875 0.175781 11.296875 -0.71875 C 9.421875 -1.613281 7.859375 -2.851562 6.609375 -4.4375 C 5.515625 -5.820312 4.816406 -7.441406 4.515625 -9.296875 C 4.222656 -11.160156 4.078125 -13.109375 4.078125 -15.140625 L 4.078125 -37.015625 L 9 -37.015625 Z M 9 -15.140625 "/></g></g></g></svg>